999
DXF created by Inkscape
  0
SECTION
  2
HEADER
  9
$ACADVER
  1
AC1014
  9
$HANDSEED
  5
FFFF
  9
$MEASUREMENT
 70
     1
  0
ENDSEC
  0
SECTION
  2
TABLES
  0
TABLE
  2
VPORT
  5
8
330
0
100
AcDbSymbolTable
 70
     4
  0
VPORT
  5
2E
330
8
100
AcDbSymbolTableRecord
100
AcDbViewportTableRecord
  2
*ACTIVE
 70
     0
 10
0.0
 20
0.0
 11
1.0
 21
1.0
 12
210.0
 22
148.5
 13
0.0
 23
0.0
 14
10.0
 24
10.0
 15
10.0
 25
10.0
 16
0.0
 26
0.0
 36
1.0
 17
0.0
 27
0.0
 37
0.0
 40
341.0
 41
1.24
 42
50.0
 43
0.0
 44
0.0
 50
0.0
 51
0.0
 71
     0
 72
   100
 73
     1
 74
     3
 75
     0
 76
     0
 77
     0
 78
     0
  0
ENDTAB
  0
TABLE
  2
LTYPE
  5
5
330
0
100
AcDbSymbolTable
 70
     1
  0
LTYPE
  5
14
330
5
100
AcDbSymbolTableRecord
100
AcDbLinetypeTableRecord
  2
BYBLOCK
 70
     0
  3

 72
    65
 73
     0
 40
0.0
  0
LTYPE
  5
15
330
5
100
AcDbSymbolTableRecord
100
AcDbLinetypeTableRecord
  2
BYLAYER
 70
     0
  3

 72
    65
 73
     0
 40
0.0
  0
LTYPE
  5
16
330
5
100
AcDbSymbolTableRecord
100
AcDbLinetypeTableRecord
  2
CONTINUOUS
 70
     0
  3
Solid line
 72
    65
 73
     0
 40
0.0
  0
ENDTAB
  0
TABLE
  2
LAYER
  5
2
100
AcDbSymbolTable
 70
2
  0
LAYER
  5
50
100
AcDbSymbolTableRecord
100
AcDbLayerTableRecord
  2
0
 70
0
  6
CONTINUOUS
  0
LAYER
  5
51
100
AcDbSymbolTableRecord
100
AcDbLayerTableRecord
  2
Layer_1
 70
0
  6
CONTINUOUS
  0
ENDTAB
  0
TABLE
  2
STYLE
  5
3
330
0
100
AcDbSymbolTable
 70
     1
  0
STYLE
  5
11
330
3
100
AcDbSymbolTableRecord
100
AcDbTextStyleTableRecord
  2
STANDARD
 70
     0
 40
0.0
 41
1.0
 50
0.0
 71
     0
 42
2.5
  3
txt
  4

  0
ENDTAB
  0
TABLE
  2
VIEW
  5
6
330
0
100
AcDbSymbolTable
 70
     0
  0
ENDTAB
  0
TABLE
  2
UCS
  5
7
330
0
100
AcDbSymbolTable
 70
     0
  0
ENDTAB
  0
TABLE
  2
APPID
  5
9
330
0
100
AcDbSymbolTable
 70
     2
  0
APPID
  5
12
330
9
100
AcDbSymbolTableRecord
100
AcDbRegAppTableRecord
  2
ACAD
 70
     0
  0
ENDTAB
  0
TABLE
  2
DIMSTYLE
  5
A
330
0
100
AcDbSymbolTable
 70
     1
  0
DIMSTYLE
105
27
330
A
100
AcDbSymbolTableRecord
100
AcDbDimStyleTableRecord
  2
ISO-25
 70
     0
  3

  4

  5

  6

  7

 40
1.0
 41
2.5
 42
0.625
 43
3.75
 44
1.25
 45
0.0
 46
0.0
 47
0.0
 48
0.0
140
2.5
141
2.5
142
0.0
143
0.03937007874016
144
1.0
145
0.0
146
1.0
147
0.625
 71
     0
 72
     0
 73
     0
 74
     0
 75
     0
 76
     0
 77
     1
 78
     8
170
     0
171
     3
172
     1
173
     0
174
     0
175
     0
176
     0
177
     0
178
     0
270
     2
271
     2
272
     2
273
     2
274
     3
340
11
275
     0
280
     0
281
     0
282
     0
283
     0
284
     8
285
     0
286
     0
287
     3
288
     0
  0
ENDTAB
  0
TABLE
  2
BLOCK_RECORD
  5
1
330
0
100
AcDbSymbolTable
 70
     1
  0
BLOCK_RECORD
  5
1F
330
1
100
AcDbSymbolTableRecord
100
AcDbBlockTableRecord
  2
*MODEL_SPACE
  0
BLOCK_RECORD
  5
1B
330
1
100
AcDbSymbolTableRecord
100
AcDbBlockTableRecord
  2
*PAPER_SPACE
  0
ENDTAB
  0
ENDSEC
  0
SECTION
  2
BLOCKS
  0
BLOCK
  5
20
330
1F
100
AcDbEntity
  8
0
100
AcDbBlockBegin
  2
*MODEL_SPACE
 70
     0
 10
0.0
 20
0.0
 30
0.0
  3
*MODEL_SPACE
  1

  0
ENDBLK
  5
21
330
1F
100
AcDbEntity
  8
0
100
AcDbBlockEnd
  0
BLOCK
  5
1C
330
1B
100
AcDbEntity
 67
     1
  8
0
100
AcDbBlockBegin
  2
*PAPER_SPACE
  1

  0
ENDBLK
  5
1D
330
1B
100
AcDbEntity
 67
     1
  8
0
100
AcDbBlockEnd
  0
ENDSEC
  0
SECTION
  2
ENTITIES
  0
LINE
  5
100
100
AcDbEntity
  8
Layer_1
 62
7
100
AcDbLine
 10
0.006214
 20
0.006214
 30
0.0
 11
0.075566
 21
1.510970
 31
0.0
  0
LINE
  5
101
100
AcDbEntity
  8
Layer_1
 62
7
100
AcDbLine
 10
0.075566
 20
1.510970
 30
0.0
 11
0.107402
 21
2.793082
 31
0.0
  0
LINE
  5
102
100
AcDbEntity
  8
Layer_1
 62
7
100
AcDbLine
 10
0.107402
 20
2.793082
 30
0.0
 11
0.232266
 21
3.791283
 31
0.0
  0
LINE
  5
103
100
AcDbEntity
  8
Layer_1
 62
7
100
AcDbLine
 10
0.232266
 20
3.791283
 30
0.0
 11
0.363001
 21
4.734574
 31
0.0
  0
LINE
  5
104
100
AcDbEntity
  8
Layer_1
 62
7
100
AcDbLine
 10
0.363001
 20
4.734574
 30
0.0
 11
0.557586
 21
5.597973
 31
0.0
  0
LINE
  5
105
100
AcDbEntity
  8
Layer_1
 62
7
100
AcDbLine
 10
0.557586
 20
5.597973
 30
0.0
 11
0.770217
 21
6.321931
 31
0.0
  0
LINE
  5
106
100
AcDbEntity
  8
Layer_1
 62
7
100
AcDbLine
 10
0.770217
 20
6.321931
 30
0.0
 11
0.982848
 21
7.045889
 31
0.0
  0
LINE
  5
107
100
AcDbEntity
  8
Layer_1
 62
7
100
AcDbLine
 10
0.982848
 20
7.045889
 30
0.0
 11
1.176529
 21
7.632348
 31
0.0
  0
LINE
  5
108
100
AcDbEntity
  8
Layer_1
 62
7
100
AcDbLine
 10
1.176529
 20
7.632348
 30
0.0
 11
1.370210
 21
8.218808
 31
0.0
  0
LINE
  5
109
100
AcDbEntity
  8
Layer_1
 62
7
100
AcDbLine
 10
1.370210
 20
8.218808
 30
0.0
 11
1.555789
 21
8.709704
 31
0.0
  0
LINE
  5
10a
100
AcDbEntity
  8
Layer_1
 62
7
100
AcDbLine
 10
1.555789
 20
8.709704
 30
0.0
 11
1.741368
 21
9.200600
 31
0.0
  0
LINE
  5
10b
100
AcDbEntity
  8
Layer_1
 62
7
100
AcDbLine
 10
1.741368
 20
9.200600
 30
0.0
 11
1.727375
 21
9.214344
 31
0.0
  0
LINE
  5
10c
100
AcDbEntity
  8
Layer_1
 62
7
100
AcDbLine
 10
1.727375
 20
9.214344
 30
0.0
 11
1.713382
 21
9.228088
 31
0.0
  0
LINE
  5
10d
100
AcDbEntity
  8
Layer_1
 62
7
100
AcDbLine
 10
1.713382
 20
9.228088
 30
0.0
 11
1.638168
 21
9.324382
 31
0.0
  0
LINE
  5
10e
100
AcDbEntity
  8
Layer_1
 62
7
100
AcDbLine
 10
1.638168
 20
9.324382
 30
0.0
 11
1.528847
 21
9.510205
 31
0.0
  0
LINE
  5
10f
100
AcDbEntity
  8
Layer_1
 62
7
100
AcDbLine
 10
1.528847
 20
9.510205
 30
0.0
 11
1.398535
 21
9.806291
 31
0.0
  0
LINE
  5
110
100
AcDbEntity
  8
Layer_1
 62
7
100
AcDbLine
 10
1.398535
 20
9.806291
 30
0.0
 11
1.260352
 21
10.233370
 31
0.0
  0
LINE
  5
111
100
AcDbEntity
  8
Layer_1
 62
7
100
AcDbLine
 10
1.260352
 20
10.233370
 30
0.0
 11
1.175743
 21
10.740474
 31
0.0
  0
LINE
  5
112
100
AcDbEntity
  8
Layer_1
 62
7
100
AcDbLine
 10
1.175743
 20
10.740474
 30
0.0
 11
1.091133
 21
11.247578
 31
0.0
  0
LINE
  5
113
100
AcDbEntity
  8
Layer_1
 62
7
100
AcDbLine
 10
1.091133
 20
11.247578
 30
0.0
 11
1.075525
 21
11.908850
 31
0.0
  0
LINE
  5
114
100
AcDbEntity
  8
Layer_1
 62
7
100
AcDbLine
 10
1.075525
 20
11.908850
 30
0.0
 11
1.059917
 21
12.570121
 31
0.0
  0
LINE
  5
115
100
AcDbEntity
  8
Layer_1
 62
7
100
AcDbLine
 10
1.059917
 20
12.570121
 30
0.0
 11
1.116398
 21
13.324602
 31
0.0
  0
LINE
  5
116
100
AcDbEntity
  8
Layer_1
 62
7
100
AcDbLine
 10
1.116398
 20
13.324602
 30
0.0
 11
1.239141
 21
13.749307
 31
0.0
  0
LINE
  5
117
100
AcDbEntity
  8
Layer_1
 62
7
100
AcDbLine
 10
1.239141
 20
13.749307
 30
0.0
 11
1.391429
 21
14.124180
 31
0.0
  0
LINE
  5
118
100
AcDbEntity
  8
Layer_1
 62
7
100
AcDbLine
 10
1.391429
 20
14.124180
 30
0.0
 11
1.572828
 21
14.475180
 31
0.0
  0
LINE
  5
119
100
AcDbEntity
  8
Layer_1
 62
7
100
AcDbLine
 10
1.572828
 20
14.475180
 30
0.0
 11
1.782907
 21
14.828265
 31
0.0
  0
LINE
  5
11a
100
AcDbEntity
  8
Layer_1
 62
7
100
AcDbLine
 10
1.782907
 20
14.828265
 30
0.0
 11
2.021232
 21
15.209391
 31
0.0
  0
LINE
  5
11b
100
AcDbEntity
  8
Layer_1
 62
7
100
AcDbLine
 10
2.021232
 20
15.209391
 30
0.0
 11
1.980976
 21
15.717636
 31
0.0
  0
LINE
  5
11c
100
AcDbEntity
  8
Layer_1
 62
7
100
AcDbLine
 10
1.980976
 20
15.717636
 30
0.0
 11
1.995707
 21
16.106978
 31
0.0
  0
LINE
  5
11d
100
AcDbEntity
  8
Layer_1
 62
7
100
AcDbLine
 10
1.995707
 20
16.106978
 30
0.0
 11
2.064173
 21
16.365177
 31
0.0
  0
LINE
  5
11e
100
AcDbEntity
  8
Layer_1
 62
7
100
AcDbLine
 10
2.064173
 20
16.365177
 30
0.0
 11
2.185119
 21
16.479995
 31
0.0
  0
LINE
  5
11f
100
AcDbEntity
  8
Layer_1
 62
7
100
AcDbLine
 10
2.185119
 20
16.479995
 30
0.0
 11
2.357295
 21
16.439192
 31
0.0
  0
LINE
  5
120
100
AcDbEntity
  8
Layer_1
 62
7
100
AcDbLine
 10
2.357295
 20
16.439192
 30
0.0
 11
2.579448
 21
16.230529
 31
0.0
  0
LINE
  5
121
100
AcDbEntity
  8
Layer_1
 62
7
100
AcDbLine
 10
2.579448
 20
16.230529
 30
0.0
 11
2.850324
 21
15.841767
 31
0.0
  0
LINE
  5
122
100
AcDbEntity
  8
Layer_1
 62
7
100
AcDbLine
 10
2.850324
 20
15.841767
 30
0.0
 11
3.168672
 21
15.260667
 31
0.0
  0
LINE
  5
123
100
AcDbEntity
  8
Layer_1
 62
7
100
AcDbLine
 10
3.168672
 20
15.260667
 30
0.0
 11
3.214150
 21
15.257462
 31
0.0
  0
LINE
  5
124
100
AcDbEntity
  8
Layer_1
 62
7
100
AcDbLine
 10
3.214150
 20
15.257462
 30
0.0
 11
3.259628
 21
15.254258
 31
0.0
  0
LINE
  5
125
100
AcDbEntity
  8
Layer_1
 62
7
100
AcDbLine
 10
3.259628
 20
15.254258
 30
0.0
 11
3.305106
 21
15.251053
 31
0.0
  0
LINE
  5
126
100
AcDbEntity
  8
Layer_1
 62
7
100
AcDbLine
 10
3.305106
 20
15.251053
 30
0.0
 11
3.350584
 21
15.247848
 31
0.0
  0
LINE
  5
127
100
AcDbEntity
  8
Layer_1
 62
7
100
AcDbLine
 10
3.350584
 20
15.247848
 30
0.0
 11
3.396062
 21
15.244644
 31
0.0
  0
LINE
  5
128
100
AcDbEntity
  8
Layer_1
 62
7
100
AcDbLine
 10
3.396062
 20
15.244644
 30
0.0
 11
3.441539
 21
15.241439
 31
0.0
  0
LINE
  5
129
100
AcDbEntity
  8
Layer_1
 62
7
100
AcDbLine
 10
3.441539
 20
15.241439
 30
0.0
 11
3.487017
 21
15.238234
 31
0.0
  0
LINE
  5
12a
100
AcDbEntity
  8
Layer_1
 62
7
100
AcDbLine
 10
3.487017
 20
15.238234
 30
0.0
 11
3.532495
 21
15.235028
 31
0.0
  0
LINE
  5
12b
100
AcDbEntity
  8
Layer_1
 62
7
100
AcDbLine
 10
3.532495
 20
15.235028
 30
0.0
 11
3.519104
 21
15.304581
 31
0.0
  0
LINE
  5
12c
100
AcDbEntity
  8
Layer_1
 62
7
100
AcDbLine
 10
3.519104
 20
15.304581
 30
0.0
 11
3.493577
 21
15.488602
 31
0.0
  0
LINE
  5
12d
100
AcDbEntity
  8
Layer_1
 62
7
100
AcDbLine
 10
3.493577
 20
15.488602
 30
0.0
 11
3.477888
 21
15.750136
 31
0.0
  0
LINE
  5
12e
100
AcDbEntity
  8
Layer_1
 62
7
100
AcDbLine
 10
3.477888
 20
15.750136
 30
0.0
 11
3.494014
 21
16.052231
 31
0.0
  0
LINE
  5
12f
100
AcDbEntity
  8
Layer_1
 62
7
100
AcDbLine
 10
3.494014
 20
16.052231
 30
0.0
 11
3.563925
 21
16.357931
 31
0.0
  0
LINE
  5
130
100
AcDbEntity
  8
Layer_1
 62
7
100
AcDbLine
 10
3.563925
 20
16.357931
 30
0.0
 11
3.709596
 21
16.630282
 31
0.0
  0
LINE
  5
131
100
AcDbEntity
  8
Layer_1
 62
7
100
AcDbLine
 10
3.709596
 20
16.630282
 30
0.0
 11
3.953001
 21
16.832329
 31
0.0
  0
LINE
  5
132
100
AcDbEntity
  8
Layer_1
 62
7
100
AcDbLine
 10
3.953001
 20
16.832329
 30
0.0
 11
4.316113
 21
16.927119
 31
0.0
  0
LINE
  5
133
100
AcDbEntity
  8
Layer_1
 62
7
100
AcDbLine
 10
4.316113
 20
16.927119
 30
0.0
 11
4.667031
 21
16.843630
 31
0.0
  0
LINE
  5
134
100
AcDbEntity
  8
Layer_1
 62
7
100
AcDbLine
 10
4.667031
 20
16.843630
 30
0.0
 11
4.907318
 21
16.644500
 31
0.0
  0
LINE
  5
135
100
AcDbEntity
  8
Layer_1
 62
7
100
AcDbLine
 10
4.907318
 20
16.644500
 30
0.0
 11
5.056651
 21
16.368803
 31
0.0
  0
LINE
  5
136
100
AcDbEntity
  8
Layer_1
 62
7
100
AcDbLine
 10
5.056651
 20
16.368803
 30
0.0
 11
5.134708
 21
16.055611
 31
0.0
  0
LINE
  5
137
100
AcDbEntity
  8
Layer_1
 62
7
100
AcDbLine
 10
5.134708
 20
16.055611
 30
0.0
 11
5.161166
 21
15.744001
 31
0.0
  0
LINE
  5
138
100
AcDbEntity
  8
Layer_1
 62
7
100
AcDbLine
 10
5.161166
 20
15.744001
 30
0.0
 11
5.155702
 21
15.473044
 31
0.0
  0
LINE
  5
139
100
AcDbEntity
  8
Layer_1
 62
7
100
AcDbLine
 10
5.155702
 20
15.473044
 30
0.0
 11
5.137993
 21
15.281816
 31
0.0
  0
LINE
  5
13a
100
AcDbEntity
  8
Layer_1
 62
7
100
AcDbLine
 10
5.137993
 20
15.281816
 30
0.0
 11
5.127717
 21
15.209390
 31
0.0
  0
LINE
  5
13b
100
AcDbEntity
  8
Layer_1
 62
7
100
AcDbLine
 10
5.127717
 20
15.209390
 30
0.0
 11
5.187188
 21
15.219006
 31
0.0
  0
LINE
  5
13c
100
AcDbEntity
  8
Layer_1
 62
7
100
AcDbLine
 10
5.187188
 20
15.219006
 30
0.0
 11
5.246659
 21
15.228621
 31
0.0
  0
LINE
  5
13d
100
AcDbEntity
  8
Layer_1
 62
7
100
AcDbLine
 10
5.246659
 20
15.228621
 30
0.0
 11
5.306130
 21
15.238236
 31
0.0
  0
LINE
  5
13e
100
AcDbEntity
  8
Layer_1
 62
7
100
AcDbLine
 10
5.306130
 20
15.238236
 30
0.0
 11
5.365601
 21
15.247851
 31
0.0
  0
LINE
  5
13f
100
AcDbEntity
  8
Layer_1
 62
7
100
AcDbLine
 10
5.365601
 20
15.247851
 30
0.0
 11
5.425073
 21
15.257465
 31
0.0
  0
LINE
  5
140
100
AcDbEntity
  8
Layer_1
 62
7
100
AcDbLine
 10
5.425073
 20
15.257465
 30
0.0
 11
5.484544
 21
15.267079
 31
0.0
  0
LINE
  5
141
100
AcDbEntity
  8
Layer_1
 62
7
100
AcDbLine
 10
5.484544
 20
15.267079
 30
0.0
 11
5.544015
 21
15.276693
 31
0.0
  0
LINE
  5
142
100
AcDbEntity
  8
Layer_1
 62
7
100
AcDbLine
 10
5.544015
 20
15.276693
 30
0.0
 11
5.603486
 21
15.286307
 31
0.0
  0
LINE
  5
143
100
AcDbEntity
  8
Layer_1
 62
7
100
AcDbLine
 10
5.603486
 20
15.286307
 30
0.0
 11
5.880485
 21
15.896556
 31
0.0
  0
LINE
  5
144
100
AcDbEntity
  8
Layer_1
 62
7
100
AcDbLine
 10
5.880485
 20
15.896556
 30
0.0
 11
6.125375
 21
16.315083
 31
0.0
  0
LINE
  5
145
100
AcDbEntity
  8
Layer_1
 62
7
100
AcDbLine
 10
6.125375
 20
16.315083
 30
0.0
 11
6.331778
 21
16.548283
 31
0.0
  0
LINE
  5
146
100
AcDbEntity
  8
Layer_1
 62
7
100
AcDbLine
 10
6.331778
 20
16.548283
 30
0.0
 11
6.493319
 21
16.602547
 31
0.0
  0
LINE
  5
147
100
AcDbEntity
  8
Layer_1
 62
7
100
AcDbLine
 10
6.493319
 20
16.602547
 30
0.0
 11
6.603620
 21
16.484269
 31
0.0
  0
LINE
  5
148
100
AcDbEntity
  8
Layer_1
 62
7
100
AcDbLine
 10
6.603620
 20
16.484269
 30
0.0
 11
6.656305
 21
16.199843
 31
0.0
  0
LINE
  5
149
100
AcDbEntity
  8
Layer_1
 62
7
100
AcDbLine
 10
6.656305
 20
16.199843
 30
0.0
 11
6.644996
 21
15.755662
 31
0.0
  0
LINE
  5
14a
100
AcDbEntity
  8
Layer_1
 62
7
100
AcDbLine
 10
6.644996
 20
15.755662
 30
0.0
 11
6.563319
 21
15.158119
 31
0.0
  0
LINE
  5
14b
100
AcDbEntity
  8
Layer_1
 62
7
100
AcDbLine
 10
6.563319
 20
15.158119
 30
0.0
 11
6.843908
 21
14.661789
 31
0.0
  0
LINE
  5
14c
100
AcDbEntity
  8
Layer_1
 62
7
100
AcDbLine
 10
6.843908
 20
14.661789
 30
0.0
 11
7.048909
 21
14.216706
 31
0.0
  0
LINE
  5
14d
100
AcDbEntity
  8
Layer_1
 62
7
100
AcDbLine
 10
7.048909
 20
14.216706
 30
0.0
 11
7.190377
 21
13.801768
 31
0.0
  0
LINE
  5
14e
100
AcDbEntity
  8
Layer_1
 62
7
100
AcDbLine
 10
7.190377
 20
13.801768
 30
0.0
 11
7.280366
 21
13.395872
 31
0.0
  0
LINE
  5
14f
100
AcDbEntity
  8
Layer_1
 62
7
100
AcDbLine
 10
7.280366
 20
13.395872
 30
0.0
 11
7.294647
 21
12.760211
 31
0.0
  0
LINE
  5
150
100
AcDbEntity
  8
Layer_1
 62
7
100
AcDbLine
 10
7.294647
 20
12.760211
 30
0.0
 11
7.289087
 21
12.140134
 31
0.0
  0
LINE
  5
151
100
AcDbEntity
  8
Layer_1
 62
7
100
AcDbLine
 10
7.289087
 20
12.140134
 30
0.0
 11
7.283527
 21
11.520056
 31
0.0
  0
LINE
  5
152
100
AcDbEntity
  8
Layer_1
 62
7
100
AcDbLine
 10
7.283527
 20
11.520056
 30
0.0
 11
7.198398
 21
10.853555
 31
0.0
  0
LINE
  5
153
100
AcDbEntity
  8
Layer_1
 62
7
100
AcDbLine
 10
7.198398
 20
10.853555
 30
0.0
 11
7.113269
 21
10.187055
 31
0.0
  0
LINE
  5
154
100
AcDbEntity
  8
Layer_1
 62
7
100
AcDbLine
 10
7.113269
 20
10.187055
 30
0.0
 11
6.957322
 21
9.771042
 31
0.0
  0
LINE
  5
155
100
AcDbEntity
  8
Layer_1
 62
7
100
AcDbLine
 10
6.957322
 20
9.771042
 30
0.0
 11
6.800063
 21
9.487224
 31
0.0
  0
LINE
  5
156
100
AcDbEntity
  8
Layer_1
 62
7
100
AcDbLine
 10
6.800063
 20
9.487224
 30
0.0
 11
6.662154
 21
9.312768
 31
0.0
  0
LINE
  5
157
100
AcDbEntity
  8
Layer_1
 62
7
100
AcDbLine
 10
6.662154
 20
9.312768
 30
0.0
 11
6.564256
 21
9.224838
 31
0.0
  0
LINE
  5
158
100
AcDbEntity
  8
Layer_1
 62
7
100
AcDbLine
 10
6.564256
 20
9.224838
 30
0.0
 11
6.545643
 21
9.212720
 31
0.0
  0
LINE
  5
159
100
AcDbEntity
  8
Layer_1
 62
7
100
AcDbLine
 10
6.545643
 20
9.212720
 30
0.0
 11
6.527031
 21
9.200601
 31
0.0
  0
LINE
  5
15a
100
AcDbEntity
  8
Layer_1
 62
7
100
AcDbLine
 10
6.527031
 20
9.200601
 30
0.0
 11
6.716706
 21
8.671472
 31
0.0
  0
LINE
  5
15b
100
AcDbEntity
  8
Layer_1
 62
7
100
AcDbLine
 10
6.716706
 20
8.671472
 30
0.0
 11
6.906381
 21
8.142344
 31
0.0
  0
LINE
  5
15c
100
AcDbEntity
  8
Layer_1
 62
7
100
AcDbLine
 10
6.906381
 20
8.142344
 30
0.0
 11
7.146463
 21
7.311245
 31
0.0
  0
LINE
  5
15d
100
AcDbEntity
  8
Layer_1
 62
7
100
AcDbLine
 10
7.146463
 20
7.311245
 30
0.0
 11
7.386545
 21
6.480148
 31
0.0
  0
LINE
  5
15e
100
AcDbEntity
  8
Layer_1
 62
7
100
AcDbLine
 10
7.386545
 20
6.480148
 30
0.0
 11
7.659157
 21
5.656285
 31
0.0
  0
LINE
  5
15f
100
AcDbEntity
  8
Layer_1
 62
7
100
AcDbLine
 10
7.659157
 20
5.656285
 30
0.0
 11
7.851254
 21
4.790861
 31
0.0
  0
LINE
  5
160
100
AcDbEntity
  8
Layer_1
 62
7
100
AcDbLine
 10
7.851254
 20
4.790861
 30
0.0
 11
7.981023
 21
3.838509
 31
0.0
  0
LINE
  5
161
100
AcDbEntity
  8
Layer_1
 62
7
100
AcDbLine
 10
7.981023
 20
3.838509
 30
0.0
 11
8.066650
 21
2.753861
 31
0.0
  0
LINE
  5
162
100
AcDbEntity
  8
Layer_1
 62
7
100
AcDbLine
 10
8.066650
 20
2.753861
 30
0.0
 11
8.126322
 21
1.491552
 31
0.0
  0
LINE
  5
163
100
AcDbEntity
  8
Layer_1
 62
7
100
AcDbLine
 10
8.126322
 20
1.491552
 30
0.0
 11
8.178226
 21
0.006215
 31
0.0
  0
LINE
  5
164
100
AcDbEntity
  8
Layer_1
 62
7
100
AcDbLine
 10
8.178226
 20
0.006215
 30
0.0
 11
7.156724
 21
0.006215
 31
0.0
  0
LINE
  5
165
100
AcDbEntity
  8
Layer_1
 62
7
100
AcDbLine
 10
7.156724
 20
0.006215
 30
0.0
 11
6.135222
 21
0.006215
 31
0.0
  0
LINE
  5
166
100
AcDbEntity
  8
Layer_1
 62
7
100
AcDbLine
 10
6.135222
 20
0.006215
 30
0.0
 11
5.113720
 21
0.006215
 31
0.0
  0
LINE
  5
167
100
AcDbEntity
  8
Layer_1
 62
7
100
AcDbLine
 10
5.113720
 20
0.006215
 30
0.0
 11
4.092218
 21
0.006215
 31
0.0
  0
LINE
  5
168
100
AcDbEntity
  8
Layer_1
 62
7
100
AcDbLine
 10
4.092218
 20
0.006215
 30
0.0
 11
3.070716
 21
0.006215
 31
0.0
  0
LINE
  5
169
100
AcDbEntity
  8
Layer_1
 62
7
100
AcDbLine
 10
3.070716
 20
0.006215
 30
0.0
 11
2.049213
 21
0.006215
 31
0.0
  0
LINE
  5
16a
100
AcDbEntity
  8
Layer_1
 62
7
100
AcDbLine
 10
2.049213
 20
0.006215
 30
0.0
 11
1.027711
 21
0.006215
 31
0.0
  0
LINE
  5
16b
100
AcDbEntity
  8
Layer_1
 62
7
100
AcDbLine
 10
1.027711
 20
0.006215
 30
0.0
 11
0.006214
 21
0.006214
 31
0.0
  0
ENDSEC
  0
SECTION
  2
OBJECTS
  0
DICTIONARY
  5
C
330
0
100
AcDbDictionary
  3
ACAD_GROUP
350
D
  3
ACAD_MLINESTYLE
350
17
  0
DICTIONARY
  5
D
330
C
100
AcDbDictionary
  0
DICTIONARY
  5
1A
330
C
100
AcDbDictionary
  0
DICTIONARY
  5
17
330
C
100
AcDbDictionary
  3
STANDARD
350
18
  0
DICTIONARY
  5
19
330
C
100
AcDbDictionary
  0
ENDSEC
  0
EOF
