999
DXF created by Inkscape
  0
SECTION
  2
HEADER
  9
$ACADVER
  1
AC1014
  9
$HANDSEED
  5
FFFF
  9
$MEASUREMENT
 70
     1
  0
ENDSEC
  0
SECTION
  2
TABLES
  0
TABLE
  2
VPORT
  5
8
330
0
100
AcDbSymbolTable
 70
     4
  0
VPORT
  5
2E
330
8
100
AcDbSymbolTableRecord
100
AcDbViewportTableRecord
  2
*ACTIVE
 70
     0
 10
0.0
 20
0.0
 11
1.0
 21
1.0
 12
210.0
 22
148.5
 13
0.0
 23
0.0
 14
10.0
 24
10.0
 15
10.0
 25
10.0
 16
0.0
 26
0.0
 36
1.0
 17
0.0
 27
0.0
 37
0.0
 40
341.0
 41
1.24
 42
50.0
 43
0.0
 44
0.0
 50
0.0
 51
0.0
 71
     0
 72
   100
 73
     1
 74
     3
 75
     0
 76
     0
 77
     0
 78
     0
  0
ENDTAB
  0
TABLE
  2
LTYPE
  5
5
330
0
100
AcDbSymbolTable
 70
     1
  0
LTYPE
  5
14
330
5
100
AcDbSymbolTableRecord
100
AcDbLinetypeTableRecord
  2
BYBLOCK
 70
     0
  3

 72
    65
 73
     0
 40
0.0
  0
LTYPE
  5
15
330
5
100
AcDbSymbolTableRecord
100
AcDbLinetypeTableRecord
  2
BYLAYER
 70
     0
  3

 72
    65
 73
     0
 40
0.0
  0
LTYPE
  5
16
330
5
100
AcDbSymbolTableRecord
100
AcDbLinetypeTableRecord
  2
CONTINUOUS
 70
     0
  3
Solid line
 72
    65
 73
     0
 40
0.0
  0
ENDTAB
  0
TABLE
  2
LAYER
  5
2
100
AcDbSymbolTable
 70
2
  0
LAYER
  5
50
100
AcDbSymbolTableRecord
100
AcDbLayerTableRecord
  2
0
 70
0
  6
CONTINUOUS
  0
LAYER
  5
51
100
AcDbSymbolTableRecord
100
AcDbLayerTableRecord
  2
Layer_1
 70
0
  6
CONTINUOUS
  0
ENDTAB
  0
TABLE
  2
STYLE
  5
3
330
0
100
AcDbSymbolTable
 70
     1
  0
STYLE
  5
11
330
3
100
AcDbSymbolTableRecord
100
AcDbTextStyleTableRecord
  2
STANDARD
 70
     0
 40
0.0
 41
1.0
 50
0.0
 71
     0
 42
2.5
  3
txt
  4

  0
ENDTAB
  0
TABLE
  2
VIEW
  5
6
330
0
100
AcDbSymbolTable
 70
     0
  0
ENDTAB
  0
TABLE
  2
UCS
  5
7
330
0
100
AcDbSymbolTable
 70
     0
  0
ENDTAB
  0
TABLE
  2
APPID
  5
9
330
0
100
AcDbSymbolTable
 70
     2
  0
APPID
  5
12
330
9
100
AcDbSymbolTableRecord
100
AcDbRegAppTableRecord
  2
ACAD
 70
     0
  0
ENDTAB
  0
TABLE
  2
DIMSTYLE
  5
A
330
0
100
AcDbSymbolTable
 70
     1
  0
DIMSTYLE
105
27
330
A
100
AcDbSymbolTableRecord
100
AcDbDimStyleTableRecord
  2
ISO-25
 70
     0
  3

  4

  5

  6

  7

 40
1.0
 41
2.5
 42
0.625
 43
3.75
 44
1.25
 45
0.0
 46
0.0
 47
0.0
 48
0.0
140
2.5
141
2.5
142
0.0
143
0.03937007874016
144
1.0
145
0.0
146
1.0
147
0.625
 71
     0
 72
     0
 73
     0
 74
     0
 75
     0
 76
     0
 77
     1
 78
     8
170
     0
171
     3
172
     1
173
     0
174
     0
175
     0
176
     0
177
     0
178
     0
270
     2
271
     2
272
     2
273
     2
274
     3
340
11
275
     0
280
     0
281
     0
282
     0
283
     0
284
     8
285
     0
286
     0
287
     3
288
     0
  0
ENDTAB
  0
TABLE
  2
BLOCK_RECORD
  5
1
330
0
100
AcDbSymbolTable
 70
     1
  0
BLOCK_RECORD
  5
1F
330
1
100
AcDbSymbolTableRecord
100
AcDbBlockTableRecord
  2
*MODEL_SPACE
  0
BLOCK_RECORD
  5
1B
330
1
100
AcDbSymbolTableRecord
100
AcDbBlockTableRecord
  2
*PAPER_SPACE
  0
ENDTAB
  0
ENDSEC
  0
SECTION
  2
BLOCKS
  0
BLOCK
  5
20
330
1F
100
AcDbEntity
  8
0
100
AcDbBlockBegin
  2
*MODEL_SPACE
 70
     0
 10
0.0
 20
0.0
 30
0.0
  3
*MODEL_SPACE
  1

  0
ENDBLK
  5
21
330
1F
100
AcDbEntity
  8
0
100
AcDbBlockEnd
  0
BLOCK
  5
1C
330
1B
100
AcDbEntity
 67
     1
  8
0
100
AcDbBlockBegin
  2
*PAPER_SPACE
  1

  0
ENDBLK
  5
1D
330
1B
100
AcDbEntity
 67
     1
  8
0
100
AcDbBlockEnd
  0
ENDSEC
  0
SECTION
  2
ENTITIES
  0
LINE
  5
100
100
AcDbEntity
  8
Layer_1
 62
7
100
AcDbLine
 10
12.203570
 20
14.808783
 30
0.0
 11
12.630218
 21
14.327744
 31
0.0
  0
LINE
  5
101
100
AcDbEntity
  8
Layer_1
 62
7
100
AcDbLine
 10
12.630218
 20
14.327744
 30
0.0
 11
12.985890
 21
13.812941
 31
0.0
  0
LINE
  5
102
100
AcDbEntity
  8
Layer_1
 62
7
100
AcDbLine
 10
12.985890
 20
13.812941
 30
0.0
 11
13.274107
 21
13.272868
 31
0.0
  0
LINE
  5
103
100
AcDbEntity
  8
Layer_1
 62
7
100
AcDbLine
 10
13.274107
 20
13.272868
 30
0.0
 11
13.498388
 21
12.716020
 31
0.0
  0
LINE
  5
104
100
AcDbEntity
  8
Layer_1
 62
7
100
AcDbLine
 10
13.498388
 20
12.716020
 30
0.0
 11
13.662256
 21
12.150893
 31
0.0
  0
LINE
  5
105
100
AcDbEntity
  8
Layer_1
 62
7
100
AcDbLine
 10
13.662256
 20
12.150893
 30
0.0
 11
13.769230
 21
11.585982
 31
0.0
  0
LINE
  5
106
100
AcDbEntity
  8
Layer_1
 62
7
100
AcDbLine
 10
13.769230
 20
11.585982
 30
0.0
 11
13.822833
 21
11.029782
 31
0.0
  0
LINE
  5
107
100
AcDbEntity
  8
Layer_1
 62
7
100
AcDbLine
 10
13.822833
 20
11.029782
 30
0.0
 11
13.826584
 21
10.490787
 31
0.0
  0
LINE
  5
108
100
AcDbEntity
  8
Layer_1
 62
7
100
AcDbLine
 10
13.826584
 20
10.490787
 30
0.0
 11
13.814180
 21
10.087789
 31
0.0
  0
LINE
  5
109
100
AcDbEntity
  8
Layer_1
 62
7
100
AcDbLine
 10
13.814180
 20
10.087789
 30
0.0
 11
13.731274
 21
9.617766
 31
0.0
  0
LINE
  5
10a
100
AcDbEntity
  8
Layer_1
 62
7
100
AcDbLine
 10
13.731274
 20
9.617766
 30
0.0
 11
13.575055
 21
9.088030
 31
0.0
  0
LINE
  5
10b
100
AcDbEntity
  8
Layer_1
 62
7
100
AcDbLine
 10
13.575055
 20
9.088030
 30
0.0
 11
13.342713
 21
8.505894
 31
0.0
  0
LINE
  5
10c
100
AcDbEntity
  8
Layer_1
 62
7
100
AcDbLine
 10
13.342713
 20
8.505894
 30
0.0
 11
13.031437
 21
7.878670
 31
0.0
  0
LINE
  5
10d
100
AcDbEntity
  8
Layer_1
 62
7
100
AcDbLine
 10
13.031437
 20
7.878670
 30
0.0
 11
12.638418
 21
7.213669
 31
0.0
  0
LINE
  5
10e
100
AcDbEntity
  8
Layer_1
 62
7
100
AcDbLine
 10
12.638418
 20
7.213669
 30
0.0
 11
12.160844
 21
6.518203
 31
0.0
  0
LINE
  5
10f
100
AcDbEntity
  8
Layer_1
 62
7
100
AcDbLine
 10
12.160844
 20
6.518203
 30
0.0
 11
11.595906
 21
5.799584
 31
0.0
  0
LINE
  5
110
100
AcDbEntity
  8
Layer_1
 62
7
100
AcDbLine
 10
11.595906
 20
5.799584
 30
0.0
 11
11.564770
 21
5.748183
 31
0.0
  0
LINE
  5
111
100
AcDbEntity
  8
Layer_1
 62
7
100
AcDbLine
 10
11.564770
 20
5.748183
 30
0.0
 11
11.481807
 21
5.603269
 31
0.0
  0
LINE
  5
112
100
AcDbEntity
  8
Layer_1
 62
7
100
AcDbLine
 10
11.481807
 20
5.603269
 30
0.0
 11
11.362691
 21
5.378773
 31
0.0
  0
LINE
  5
113
100
AcDbEntity
  8
Layer_1
 62
7
100
AcDbLine
 10
11.362691
 20
5.378773
 30
0.0
 11
11.223093
 21
5.088631
 31
0.0
  0
LINE
  5
114
100
AcDbEntity
  8
Layer_1
 62
7
100
AcDbLine
 10
11.223093
 20
5.088631
 30
0.0
 11
11.078685
 21
4.746775
 31
0.0
  0
LINE
  5
115
100
AcDbEntity
  8
Layer_1
 62
7
100
AcDbLine
 10
11.078685
 20
4.746775
 30
0.0
 11
10.945137
 21
4.367138
 31
0.0
  0
LINE
  5
116
100
AcDbEntity
  8
Layer_1
 62
7
100
AcDbLine
 10
10.945137
 20
4.367138
 30
0.0
 11
10.838122
 21
3.963653
 31
0.0
  0
LINE
  5
117
100
AcDbEntity
  8
Layer_1
 62
7
100
AcDbLine
 10
10.838122
 20
3.963653
 30
0.0
 11
10.773311
 21
3.550254
 31
0.0
  0
LINE
  5
118
100
AcDbEntity
  8
Layer_1
 62
7
100
AcDbLine
 10
10.773311
 20
3.550254
 30
0.0
 11
10.836380
 21
3.014807
 31
0.0
  0
LINE
  5
119
100
AcDbEntity
  8
Layer_1
 62
7
100
AcDbLine
 10
10.836380
 20
3.014807
 30
0.0
 11
10.922841
 21
2.560921
 31
0.0
  0
LINE
  5
11a
100
AcDbEntity
  8
Layer_1
 62
7
100
AcDbLine
 10
10.922841
 20
2.560921
 30
0.0
 11
11.022893
 21
2.185462
 31
0.0
  0
LINE
  5
11b
100
AcDbEntity
  8
Layer_1
 62
7
100
AcDbLine
 10
11.022893
 20
2.185462
 30
0.0
 11
11.126732
 21
1.885296
 31
0.0
  0
LINE
  5
11c
100
AcDbEntity
  8
Layer_1
 62
7
100
AcDbLine
 10
11.126732
 20
1.885296
 30
0.0
 11
11.224559
 21
1.657290
 31
0.0
  0
LINE
  5
11d
100
AcDbEntity
  8
Layer_1
 62
7
100
AcDbLine
 10
11.224559
 20
1.657290
 30
0.0
 11
11.306571
 21
1.498308
 31
0.0
  0
LINE
  5
11e
100
AcDbEntity
  8
Layer_1
 62
7
100
AcDbLine
 10
11.306571
 20
1.498308
 30
0.0
 11
11.362965
 21
1.405218
 31
0.0
  0
LINE
  5
11f
100
AcDbEntity
  8
Layer_1
 62
7
100
AcDbLine
 10
11.362965
 20
1.405218
 30
0.0
 11
11.383943
 21
1.374884
 31
0.0
  0
LINE
  5
120
100
AcDbEntity
  8
Layer_1
 62
7
100
AcDbLine
 10
11.383943
 20
1.374884
 30
0.0
 11
11.488486
 21
1.205430
 31
0.0
  0
LINE
  5
121
100
AcDbEntity
  8
Layer_1
 62
7
100
AcDbLine
 10
11.488486
 20
1.205430
 30
0.0
 11
11.593029
 21
1.035977
 31
0.0
  0
LINE
  5
122
100
AcDbEntity
  8
Layer_1
 62
7
100
AcDbLine
 10
11.593029
 20
1.035977
 30
0.0
 11
11.697572
 21
0.866523
 31
0.0
  0
LINE
  5
123
100
AcDbEntity
  8
Layer_1
 62
7
100
AcDbLine
 10
11.697572
 20
0.866523
 30
0.0
 11
11.802115
 21
0.697069
 31
0.0
  0
LINE
  5
124
100
AcDbEntity
  8
Layer_1
 62
7
100
AcDbLine
 10
11.802115
 20
0.697069
 30
0.0
 11
11.906658
 21
0.527615
 31
0.0
  0
LINE
  5
125
100
AcDbEntity
  8
Layer_1
 62
7
100
AcDbLine
 10
11.906658
 20
0.527615
 30
0.0
 11
12.011202
 21
0.358162
 31
0.0
  0
LINE
  5
126
100
AcDbEntity
  8
Layer_1
 62
7
100
AcDbLine
 10
12.011202
 20
0.358162
 30
0.0
 11
12.115745
 21
0.188708
 31
0.0
  0
LINE
  5
127
100
AcDbEntity
  8
Layer_1
 62
7
100
AcDbLine
 10
12.115745
 20
0.188708
 30
0.0
 11
12.220288
 21
0.000000
 31
0.0
  0
LINE
  5
128
100
AcDbEntity
  8
Layer_1
 62
7
100
AcDbLine
 10
12.220288
 20
0.000000
 30
0.0
 11
10.705076
 21
0.000000
 31
0.0
  0
LINE
  5
129
100
AcDbEntity
  8
Layer_1
 62
7
100
AcDbLine
 10
10.705076
 20
0.000000
 30
0.0
 11
9.189865
 21
0.000000
 31
0.0
  0
LINE
  5
12a
100
AcDbEntity
  8
Layer_1
 62
7
100
AcDbLine
 10
9.189865
 20
0.000000
 30
0.0
 11
7.674654
 21
0.000000
 31
0.0
  0
LINE
  5
12b
100
AcDbEntity
  8
Layer_1
 62
7
100
AcDbLine
 10
7.674654
 20
0.000000
 30
0.0
 11
6.159442
 21
0.000000
 31
0.0
  0
LINE
  5
12c
100
AcDbEntity
  8
Layer_1
 62
7
100
AcDbLine
 10
6.159442
 20
0.000000
 30
0.0
 11
4.644231
 21
0.000000
 31
0.0
  0
LINE
  5
12d
100
AcDbEntity
  8
Layer_1
 62
7
100
AcDbLine
 10
4.644231
 20
0.000000
 30
0.0
 11
3.129020
 21
0.000000
 31
0.0
  0
LINE
  5
12e
100
AcDbEntity
  8
Layer_1
 62
7
100
AcDbLine
 10
3.129020
 20
0.000000
 30
0.0
 11
1.613809
 21
0.000000
 31
0.0
  0
LINE
  5
12f
100
AcDbEntity
  8
Layer_1
 62
7
100
AcDbLine
 10
1.613809
 20
0.000000
 30
0.0
 11
0.000000
 21
0.000000
 31
0.0
  0
LINE
  5
130
100
AcDbEntity
  8
Layer_1
 62
7
100
AcDbLine
 10
0.000000
 20
0.000000
 30
0.0
 11
0.229427
 21
0.913540
 31
0.0
  0
LINE
  5
131
100
AcDbEntity
  8
Layer_1
 62
7
100
AcDbLine
 10
0.229427
 20
0.913540
 30
0.0
 11
0.364434
 21
1.728175
 31
0.0
  0
LINE
  5
132
100
AcDbEntity
  8
Layer_1
 62
7
100
AcDbLine
 10
0.364434
 20
1.728175
 30
0.0
 11
0.512909
 21
2.481129
 31
0.0
  0
LINE
  5
133
100
AcDbEntity
  8
Layer_1
 62
7
100
AcDbLine
 10
0.512909
 20
2.481129
 30
0.0
 11
0.684143
 21
3.186984
 31
0.0
  0
LINE
  5
134
100
AcDbEntity
  8
Layer_1
 62
7
100
AcDbLine
 10
0.684143
 20
3.186984
 30
0.0
 11
0.887428
 21
3.860323
 31
0.0
  0
LINE
  5
135
100
AcDbEntity
  8
Layer_1
 62
7
100
AcDbLine
 10
0.887428
 20
3.860323
 30
0.0
 11
1.132056
 21
4.515729
 31
0.0
  0
LINE
  5
136
100
AcDbEntity
  8
Layer_1
 62
7
100
AcDbLine
 10
1.132056
 20
4.515729
 30
0.0
 11
1.427318
 21
5.167785
 31
0.0
  0
LINE
  5
137
100
AcDbEntity
  8
Layer_1
 62
7
100
AcDbLine
 10
1.427318
 20
5.167785
 30
0.0
 11
1.782505
 21
5.831073
 31
0.0
  0
LINE
  5
138
100
AcDbEntity
  8
Layer_1
 62
7
100
AcDbLine
 10
1.782505
 20
5.831073
 30
0.0
 11
2.213357
 21
6.483193
 31
0.0
  0
LINE
  5
139
100
AcDbEntity
  8
Layer_1
 62
7
100
AcDbLine
 10
2.213357
 20
6.483193
 30
0.0
 11
2.705417
 21
7.084781
 31
0.0
  0
LINE
  5
13a
100
AcDbEntity
  8
Layer_1
 62
7
100
AcDbLine
 10
2.705417
 20
7.084781
 30
0.0
 11
3.254389
 21
7.628993
 31
0.0
  0
LINE
  5
13b
100
AcDbEntity
  8
Layer_1
 62
7
100
AcDbLine
 10
3.254389
 20
7.628993
 30
0.0
 11
3.855975
 21
8.108982
 31
0.0
  0
LINE
  5
13c
100
AcDbEntity
  8
Layer_1
 62
7
100
AcDbLine
 10
3.855975
 20
8.108982
 30
0.0
 11
4.505875
 21
8.517905
 31
0.0
  0
LINE
  5
13d
100
AcDbEntity
  8
Layer_1
 62
7
100
AcDbLine
 10
4.505875
 20
8.517905
 30
0.0
 11
5.199792
 21
8.848915
 31
0.0
  0
LINE
  5
13e
100
AcDbEntity
  8
Layer_1
 62
7
100
AcDbLine
 10
5.199792
 20
8.848915
 30
0.0
 11
5.933429
 21
9.095167
 31
0.0
  0
LINE
  5
13f
100
AcDbEntity
  8
Layer_1
 62
7
100
AcDbLine
 10
5.933429
 20
9.095167
 30
0.0
 11
6.702487
 21
9.249817
 31
0.0
  0
LINE
  5
140
100
AcDbEntity
  8
Layer_1
 62
7
100
AcDbLine
 10
6.702487
 20
9.249817
 30
0.0
 11
6.763964
 21
9.302841
 31
0.0
  0
LINE
  5
141
100
AcDbEntity
  8
Layer_1
 62
7
100
AcDbLine
 10
6.763964
 20
9.302841
 30
0.0
 11
6.825440
 21
9.355865
 31
0.0
  0
LINE
  5
142
100
AcDbEntity
  8
Layer_1
 62
7
100
AcDbLine
 10
6.825440
 20
9.355865
 30
0.0
 11
6.886917
 21
9.408889
 31
0.0
  0
LINE
  5
143
100
AcDbEntity
  8
Layer_1
 62
7
100
AcDbLine
 10
6.886917
 20
9.408889
 30
0.0
 11
6.948394
 21
9.461913
 31
0.0
  0
LINE
  5
144
100
AcDbEntity
  8
Layer_1
 62
7
100
AcDbLine
 10
6.948394
 20
9.461913
 30
0.0
 11
7.009871
 21
9.514937
 31
0.0
  0
LINE
  5
145
100
AcDbEntity
  8
Layer_1
 62
7
100
AcDbLine
 10
7.009871
 20
9.514937
 30
0.0
 11
7.071348
 21
9.567960
 31
0.0
  0
LINE
  5
146
100
AcDbEntity
  8
Layer_1
 62
7
100
AcDbLine
 10
7.071348
 20
9.567960
 30
0.0
 11
7.132825
 21
9.620984
 31
0.0
  0
LINE
  5
147
100
AcDbEntity
  8
Layer_1
 62
7
100
AcDbLine
 10
7.132825
 20
9.620984
 30
0.0
 11
7.194302
 21
9.674008
 31
0.0
  0
LINE
  5
148
100
AcDbEntity
  8
Layer_1
 62
7
100
AcDbLine
 10
7.194302
 20
9.674008
 30
0.0
 11
7.096767
 21
9.682486
 31
0.0
  0
LINE
  5
149
100
AcDbEntity
  8
Layer_1
 62
7
100
AcDbLine
 10
7.096767
 20
9.682486
 30
0.0
 11
6.999233
 21
9.690964
 31
0.0
  0
LINE
  5
14a
100
AcDbEntity
  8
Layer_1
 62
7
100
AcDbLine
 10
6.999233
 20
9.690964
 30
0.0
 11
6.901699
 21
9.699442
 31
0.0
  0
LINE
  5
14b
100
AcDbEntity
  8
Layer_1
 62
7
100
AcDbLine
 10
6.901699
 20
9.699442
 30
0.0
 11
6.804165
 21
9.707920
 31
0.0
  0
LINE
  5
14c
100
AcDbEntity
  8
Layer_1
 62
7
100
AcDbLine
 10
6.804165
 20
9.707920
 30
0.0
 11
6.706631
 21
9.716398
 31
0.0
  0
LINE
  5
14d
100
AcDbEntity
  8
Layer_1
 62
7
100
AcDbLine
 10
6.706631
 20
9.716398
 30
0.0
 11
6.609096
 21
9.724876
 31
0.0
  0
LINE
  5
14e
100
AcDbEntity
  8
Layer_1
 62
7
100
AcDbLine
 10
6.609096
 20
9.724876
 30
0.0
 11
6.511562
 21
9.733354
 31
0.0
  0
LINE
  5
14f
100
AcDbEntity
  8
Layer_1
 62
7
100
AcDbLine
 10
6.511562
 20
9.733354
 30
0.0
 11
6.414028
 21
9.741832
 31
0.0
  0
LINE
  5
150
100
AcDbEntity
  8
Layer_1
 62
7
100
AcDbLine
 10
6.414028
 20
9.741832
 30
0.0
 11
6.332849
 21
9.781532
 31
0.0
  0
LINE
  5
151
100
AcDbEntity
  8
Layer_1
 62
7
100
AcDbLine
 10
6.332849
 20
9.781532
 30
0.0
 11
6.251669
 21
9.821233
 31
0.0
  0
LINE
  5
152
100
AcDbEntity
  8
Layer_1
 62
7
100
AcDbLine
 10
6.251669
 20
9.821233
 30
0.0
 11
6.170489
 21
9.860933
 31
0.0
  0
LINE
  5
153
100
AcDbEntity
  8
Layer_1
 62
7
100
AcDbLine
 10
6.170489
 20
9.860933
 30
0.0
 11
6.089310
 21
9.900634
 31
0.0
  0
LINE
  5
154
100
AcDbEntity
  8
Layer_1
 62
7
100
AcDbLine
 10
6.089310
 20
9.900634
 30
0.0
 11
6.008131
 21
9.940334
 31
0.0
  0
LINE
  5
155
100
AcDbEntity
  8
Layer_1
 62
7
100
AcDbLine
 10
6.008131
 20
9.940334
 30
0.0
 11
5.926951
 21
9.980035
 31
0.0
  0
LINE
  5
156
100
AcDbEntity
  8
Layer_1
 62
7
100
AcDbLine
 10
5.926951
 20
9.980035
 30
0.0
 11
5.845772
 21
10.019735
 31
0.0
  0
LINE
  5
157
100
AcDbEntity
  8
Layer_1
 62
7
100
AcDbLine
 10
5.845772
 20
10.019735
 30
0.0
 11
5.764592
 21
10.059436
 31
0.0
  0
LINE
  5
158
100
AcDbEntity
  8
Layer_1
 62
7
100
AcDbLine
 10
5.764592
 20
10.059436
 30
0.0
 11
5.641849
 21
9.933814
 31
0.0
  0
LINE
  5
159
100
AcDbEntity
  8
Layer_1
 62
7
100
AcDbLine
 10
5.641849
 20
9.933814
 30
0.0
 11
5.519106
 21
9.808193
 31
0.0
  0
LINE
  5
15a
100
AcDbEntity
  8
Layer_1
 62
7
100
AcDbLine
 10
5.519106
 20
9.808193
 30
0.0
 11
5.396363
 21
9.682571
 31
0.0
  0
LINE
  5
15b
100
AcDbEntity
  8
Layer_1
 62
7
100
AcDbLine
 10
5.396363
 20
9.682571
 30
0.0
 11
5.273621
 21
9.556949
 31
0.0
  0
LINE
  5
15c
100
AcDbEntity
  8
Layer_1
 62
7
100
AcDbLine
 10
5.273621
 20
9.556949
 30
0.0
 11
5.150878
 21
9.431327
 31
0.0
  0
LINE
  5
15d
100
AcDbEntity
  8
Layer_1
 62
7
100
AcDbLine
 10
5.150878
 20
9.431327
 30
0.0
 11
5.028135
 21
9.305706
 31
0.0
  0
LINE
  5
15e
100
AcDbEntity
  8
Layer_1
 62
7
100
AcDbLine
 10
5.028135
 20
9.305706
 30
0.0
 11
4.905392
 21
9.180084
 31
0.0
  0
LINE
  5
15f
100
AcDbEntity
  8
Layer_1
 62
7
100
AcDbLine
 10
4.905392
 20
9.180084
 30
0.0
 11
4.782650
 21
9.054462
 31
0.0
  0
LINE
  5
160
100
AcDbEntity
  8
Layer_1
 62
7
100
AcDbLine
 10
4.782650
 20
9.054462
 30
0.0
 11
4.572375
 21
8.864086
 31
0.0
  0
LINE
  5
161
100
AcDbEntity
  8
Layer_1
 62
7
100
AcDbLine
 10
4.572375
 20
8.864086
 30
0.0
 11
4.362101
 21
8.673710
 31
0.0
  0
LINE
  5
162
100
AcDbEntity
  8
Layer_1
 62
7
100
AcDbLine
 10
4.362101
 20
8.673710
 30
0.0
 11
4.151827
 21
8.483333
 31
0.0
  0
LINE
  5
163
100
AcDbEntity
  8
Layer_1
 62
7
100
AcDbLine
 10
4.151827
 20
8.483333
 30
0.0
 11
3.941553
 21
8.292957
 31
0.0
  0
LINE
  5
164
100
AcDbEntity
  8
Layer_1
 62
7
100
AcDbLine
 10
3.941553
 20
8.292957
 30
0.0
 11
3.731279
 21
8.102581
 31
0.0
  0
LINE
  5
165
100
AcDbEntity
  8
Layer_1
 62
7
100
AcDbLine
 10
3.731279
 20
8.102581
 30
0.0
 11
3.521005
 21
7.912204
 31
0.0
  0
LINE
  5
166
100
AcDbEntity
  8
Layer_1
 62
7
100
AcDbLine
 10
3.521005
 20
7.912204
 30
0.0
 11
3.310731
 21
7.721828
 31
0.0
  0
LINE
  5
167
100
AcDbEntity
  8
Layer_1
 62
7
100
AcDbLine
 10
3.310731
 20
7.721828
 30
0.0
 11
3.100457
 21
7.531452
 31
0.0
  0
LINE
  5
168
100
AcDbEntity
  8
Layer_1
 62
7
100
AcDbLine
 10
3.100457
 20
7.531452
 30
0.0
 11
2.994113
 21
7.594271
 31
0.0
  0
LINE
  5
169
100
AcDbEntity
  8
Layer_1
 62
7
100
AcDbLine
 10
2.994113
 20
7.594271
 30
0.0
 11
2.887771
 21
7.656999
 31
0.0
  0
LINE
  5
16a
100
AcDbEntity
  8
Layer_1
 62
7
100
AcDbLine
 10
2.887771
 20
7.656999
 30
0.0
 11
2.781429
 21
7.719727
 31
0.0
  0
LINE
  5
16b
100
AcDbEntity
  8
Layer_1
 62
7
100
AcDbLine
 10
2.781429
 20
7.719727
 30
0.0
 11
2.675087
 21
7.782456
 31
0.0
  0
LINE
  5
16c
100
AcDbEntity
  8
Layer_1
 62
7
100
AcDbLine
 10
2.675087
 20
7.782456
 30
0.0
 11
2.568745
 21
7.845184
 31
0.0
  0
LINE
  5
16d
100
AcDbEntity
  8
Layer_1
 62
7
100
AcDbLine
 10
2.568745
 20
7.845184
 30
0.0
 11
2.462403
 21
7.907912
 31
0.0
  0
LINE
  5
16e
100
AcDbEntity
  8
Layer_1
 62
7
100
AcDbLine
 10
2.462403
 20
7.907912
 30
0.0
 11
2.356061
 21
7.970641
 31
0.0
  0
LINE
  5
16f
100
AcDbEntity
  8
Layer_1
 62
7
100
AcDbLine
 10
2.356061
 20
7.970641
 30
0.0
 11
2.249718
 21
8.033369
 31
0.0
  0
LINE
  5
170
100
AcDbEntity
  8
Layer_1
 62
7
100
AcDbLine
 10
2.249718
 20
8.033369
 30
0.0
 11
2.322395
 21
8.077178
 31
0.0
  0
LINE
  5
171
100
AcDbEntity
  8
Layer_1
 62
7
100
AcDbLine
 10
2.322395
 20
8.077178
 30
0.0
 11
2.395071
 21
8.120987
 31
0.0
  0
LINE
  5
172
100
AcDbEntity
  8
Layer_1
 62
7
100
AcDbLine
 10
2.395071
 20
8.120987
 30
0.0
 11
2.467747
 21
8.164796
 31
0.0
  0
LINE
  5
173
100
AcDbEntity
  8
Layer_1
 62
7
100
AcDbLine
 10
2.467747
 20
8.164796
 30
0.0
 11
2.540423
 21
8.208605
 31
0.0
  0
LINE
  5
174
100
AcDbEntity
  8
Layer_1
 62
7
100
AcDbLine
 10
2.540423
 20
8.208605
 30
0.0
 11
2.613100
 21
8.252414
 31
0.0
  0
LINE
  5
175
100
AcDbEntity
  8
Layer_1
 62
7
100
AcDbLine
 10
2.613100
 20
8.252414
 30
0.0
 11
2.685776
 21
8.296223
 31
0.0
  0
LINE
  5
176
100
AcDbEntity
  8
Layer_1
 62
7
100
AcDbLine
 10
2.685776
 20
8.296223
 30
0.0
 11
2.758452
 21
8.340032
 31
0.0
  0
LINE
  5
177
100
AcDbEntity
  8
Layer_1
 62
7
100
AcDbLine
 10
2.758452
 20
8.340032
 30
0.0
 11
2.831128
 21
8.383841
 31
0.0
  0
LINE
  5
178
100
AcDbEntity
  8
Layer_1
 62
7
100
AcDbLine
 10
2.831128
 20
8.383841
 30
0.0
 11
2.703650
 21
8.406640
 31
0.0
  0
LINE
  5
179
100
AcDbEntity
  8
Layer_1
 62
7
100
AcDbLine
 10
2.703650
 20
8.406640
 30
0.0
 11
2.576172
 21
8.429438
 31
0.0
  0
LINE
  5
17a
100
AcDbEntity
  8
Layer_1
 62
7
100
AcDbLine
 10
2.576172
 20
8.429438
 30
0.0
 11
2.448694
 21
8.452237
 31
0.0
  0
LINE
  5
17b
100
AcDbEntity
  8
Layer_1
 62
7
100
AcDbLine
 10
2.448694
 20
8.452237
 30
0.0
 11
2.321216
 21
8.475036
 31
0.0
  0
LINE
  5
17c
100
AcDbEntity
  8
Layer_1
 62
7
100
AcDbLine
 10
2.321216
 20
8.475036
 30
0.0
 11
2.193738
 21
8.497834
 31
0.0
  0
LINE
  5
17d
100
AcDbEntity
  8
Layer_1
 62
7
100
AcDbLine
 10
2.193738
 20
8.497834
 30
0.0
 11
2.066260
 21
8.520633
 31
0.0
  0
LINE
  5
17e
100
AcDbEntity
  8
Layer_1
 62
7
100
AcDbLine
 10
2.066260
 20
8.520633
 30
0.0
 11
1.938782
 21
8.543431
 31
0.0
  0
LINE
  5
17f
100
AcDbEntity
  8
Layer_1
 62
7
100
AcDbLine
 10
1.938782
 20
8.543431
 30
0.0
 11
1.811304
 21
8.566230
 31
0.0
  0
LINE
  5
180
100
AcDbEntity
  8
Layer_1
 62
7
100
AcDbLine
 10
1.811304
 20
8.566230
 30
0.0
 11
1.695060
 21
8.652590
 31
0.0
  0
LINE
  5
181
100
AcDbEntity
  8
Layer_1
 62
7
100
AcDbLine
 10
1.695060
 20
8.652590
 30
0.0
 11
1.578815
 21
8.738951
 31
0.0
  0
LINE
  5
182
100
AcDbEntity
  8
Layer_1
 62
7
100
AcDbLine
 10
1.578815
 20
8.738951
 30
0.0
 11
1.462571
 21
8.825311
 31
0.0
  0
LINE
  5
183
100
AcDbEntity
  8
Layer_1
 62
7
100
AcDbLine
 10
1.462571
 20
8.825311
 30
0.0
 11
1.346326
 21
8.911672
 31
0.0
  0
LINE
  5
184
100
AcDbEntity
  8
Layer_1
 62
7
100
AcDbLine
 10
1.346326
 20
8.911672
 30
0.0
 11
1.230082
 21
8.998032
 31
0.0
  0
LINE
  5
185
100
AcDbEntity
  8
Layer_1
 62
7
100
AcDbLine
 10
1.230082
 20
8.998032
 30
0.0
 11
1.113837
 21
9.084392
 31
0.0
  0
LINE
  5
186
100
AcDbEntity
  8
Layer_1
 62
7
100
AcDbLine
 10
1.113837
 20
9.084392
 30
0.0
 11
0.997593
 21
9.170753
 31
0.0
  0
LINE
  5
187
100
AcDbEntity
  8
Layer_1
 62
7
100
AcDbLine
 10
0.997593
 20
9.170753
 30
0.0
 11
0.881348
 21
9.257114
 31
0.0
  0
LINE
  5
188
100
AcDbEntity
  8
Layer_1
 62
7
100
AcDbLine
 10
0.881348
 20
9.257114
 30
0.0
 11
0.854073
 21
9.400855
 31
0.0
  0
LINE
  5
189
100
AcDbEntity
  8
Layer_1
 62
7
100
AcDbLine
 10
0.854073
 20
9.400855
 30
0.0
 11
0.826798
 21
9.544597
 31
0.0
  0
LINE
  5
18a
100
AcDbEntity
  8
Layer_1
 62
7
100
AcDbLine
 10
0.826798
 20
9.544597
 30
0.0
 11
0.799523
 21
9.688339
 31
0.0
  0
LINE
  5
18b
100
AcDbEntity
  8
Layer_1
 62
7
100
AcDbLine
 10
0.799523
 20
9.688339
 30
0.0
 11
0.772248
 21
9.832081
 31
0.0
  0
LINE
  5
18c
100
AcDbEntity
  8
Layer_1
 62
7
100
AcDbLine
 10
0.772248
 20
9.832081
 30
0.0
 11
0.744973
 21
9.975822
 31
0.0
  0
LINE
  5
18d
100
AcDbEntity
  8
Layer_1
 62
7
100
AcDbLine
 10
0.744973
 20
9.975822
 30
0.0
 11
0.717698
 21
10.119564
 31
0.0
  0
LINE
  5
18e
100
AcDbEntity
  8
Layer_1
 62
7
100
AcDbLine
 10
0.717698
 20
10.119564
 30
0.0
 11
0.690423
 21
10.263306
 31
0.0
  0
LINE
  5
18f
100
AcDbEntity
  8
Layer_1
 62
7
100
AcDbLine
 10
0.690423
 20
10.263306
 30
0.0
 11
0.663148
 21
10.407048
 31
0.0
  0
LINE
  5
190
100
AcDbEntity
  8
Layer_1
 62
7
100
AcDbLine
 10
0.663148
 20
10.407048
 30
0.0
 11
0.794041
 21
10.488444
 31
0.0
  0
LINE
  5
191
100
AcDbEntity
  8
Layer_1
 62
7
100
AcDbLine
 10
0.794041
 20
10.488444
 30
0.0
 11
0.924935
 21
10.569840
 31
0.0
  0
LINE
  5
192
100
AcDbEntity
  8
Layer_1
 62
7
100
AcDbLine
 10
0.924935
 20
10.569840
 30
0.0
 11
1.055828
 21
10.651236
 31
0.0
  0
LINE
  5
193
100
AcDbEntity
  8
Layer_1
 62
7
100
AcDbLine
 10
1.055828
 20
10.651236
 30
0.0
 11
1.186722
 21
10.732632
 31
0.0
  0
LINE
  5
194
100
AcDbEntity
  8
Layer_1
 62
7
100
AcDbLine
 10
1.186722
 20
10.732632
 30
0.0
 11
1.317615
 21
10.814028
 31
0.0
  0
LINE
  5
195
100
AcDbEntity
  8
Layer_1
 62
7
100
AcDbLine
 10
1.317615
 20
10.814028
 30
0.0
 11
1.448509
 21
10.895424
 31
0.0
  0
LINE
  5
196
100
AcDbEntity
  8
Layer_1
 62
7
100
AcDbLine
 10
1.448509
 20
10.895424
 30
0.0
 11
1.579403
 21
10.976820
 31
0.0
  0
LINE
  5
197
100
AcDbEntity
  8
Layer_1
 62
7
100
AcDbLine
 10
1.579403
 20
10.976820
 30
0.0
 11
1.710296
 21
11.058217
 31
0.0
  0
LINE
  5
198
100
AcDbEntity
  8
Layer_1
 62
7
100
AcDbLine
 10
1.710296
 20
11.058217
 30
0.0
 11
2.076402
 21
11.702414
 31
0.0
  0
LINE
  5
199
100
AcDbEntity
  8
Layer_1
 62
7
100
AcDbLine
 10
2.076402
 20
11.702414
 30
0.0
 11
2.391552
 21
12.234328
 31
0.0
  0
LINE
  5
19a
100
AcDbEntity
  8
Layer_1
 62
7
100
AcDbLine
 10
2.391552
 20
12.234328
 30
0.0
 11
2.672657
 21
12.678619
 31
0.0
  0
LINE
  5
19b
100
AcDbEntity
  8
Layer_1
 62
7
100
AcDbLine
 10
2.672657
 20
12.678619
 30
0.0
 11
2.936631
 21
13.059946
 31
0.0
  0
LINE
  5
19c
100
AcDbEntity
  8
Layer_1
 62
7
100
AcDbLine
 10
2.936631
 20
13.059946
 30
0.0
 11
3.200384
 21
13.402970
 31
0.0
  0
LINE
  5
19d
100
AcDbEntity
  8
Layer_1
 62
7
100
AcDbLine
 10
3.200384
 20
13.402970
 30
0.0
 11
3.480828
 21
13.732351
 31
0.0
  0
LINE
  5
19e
100
AcDbEntity
  8
Layer_1
 62
7
100
AcDbLine
 10
3.480828
 20
13.732351
 30
0.0
 11
3.794877
 21
14.072748
 31
0.0
  0
LINE
  5
19f
100
AcDbEntity
  8
Layer_1
 62
7
100
AcDbLine
 10
3.794877
 20
14.072748
 30
0.0
 11
4.159441
 21
14.448823
 31
0.0
  0
LINE
  5
1a0
100
AcDbEntity
  8
Layer_1
 62
7
100
AcDbLine
 10
4.159441
 20
14.448823
 30
0.0
 11
4.498133
 21
14.806463
 31
0.0
  0
LINE
  5
1a1
100
AcDbEntity
  8
Layer_1
 62
7
100
AcDbLine
 10
4.498133
 20
14.806463
 30
0.0
 11
4.816399
 21
15.110832
 31
0.0
  0
LINE
  5
1a2
100
AcDbEntity
  8
Layer_1
 62
7
100
AcDbLine
 10
4.816399
 20
15.110832
 30
0.0
 11
5.106615
 21
15.363653
 31
0.0
  0
LINE
  5
1a3
100
AcDbEntity
  8
Layer_1
 62
7
100
AcDbLine
 10
5.106615
 20
15.363653
 30
0.0
 11
5.361159
 21
15.566647
 31
0.0
  0
LINE
  5
1a4
100
AcDbEntity
  8
Layer_1
 62
7
100
AcDbLine
 10
5.361159
 20
15.566647
 30
0.0
 11
5.572408
 21
15.721535
 31
0.0
  0
LINE
  5
1a5
100
AcDbEntity
  8
Layer_1
 62
7
100
AcDbLine
 10
5.572408
 20
15.721535
 30
0.0
 11
5.732738
 21
15.830038
 31
0.0
  0
LINE
  5
1a6
100
AcDbEntity
  8
Layer_1
 62
7
100
AcDbLine
 10
5.732738
 20
15.830038
 30
0.0
 11
5.834526
 21
15.893877
 31
0.0
  0
LINE
  5
1a7
100
AcDbEntity
  8
Layer_1
 62
7
100
AcDbLine
 10
5.834526
 20
15.893877
 30
0.0
 11
5.870149
 21
15.914774
 31
0.0
  0
LINE
  5
1a8
100
AcDbEntity
  8
Layer_1
 62
7
100
AcDbLine
 10
5.870149
 20
15.914774
 30
0.0
 11
5.957160
 21
16.074643
 31
0.0
  0
LINE
  5
1a9
100
AcDbEntity
  8
Layer_1
 62
7
100
AcDbLine
 10
5.957160
 20
16.074643
 30
0.0
 11
6.044170
 21
16.234513
 31
0.0
  0
LINE
  5
1aa
100
AcDbEntity
  8
Layer_1
 62
7
100
AcDbLine
 10
6.044170
 20
16.234513
 30
0.0
 11
6.131180
 21
16.394382
 31
0.0
  0
LINE
  5
1ab
100
AcDbEntity
  8
Layer_1
 62
7
100
AcDbLine
 10
6.131180
 20
16.394382
 30
0.0
 11
6.218190
 21
16.554251
 31
0.0
  0
LINE
  5
1ac
100
AcDbEntity
  8
Layer_1
 62
7
100
AcDbLine
 10
6.218190
 20
16.554251
 30
0.0
 11
6.305201
 21
16.714121
 31
0.0
  0
LINE
  5
1ad
100
AcDbEntity
  8
Layer_1
 62
7
100
AcDbLine
 10
6.305201
 20
16.714121
 30
0.0
 11
6.392211
 21
16.873990
 31
0.0
  0
LINE
  5
1ae
100
AcDbEntity
  8
Layer_1
 62
7
100
AcDbLine
 10
6.392211
 20
16.873990
 30
0.0
 11
6.479221
 21
17.033859
 31
0.0
  0
LINE
  5
1af
100
AcDbEntity
  8
Layer_1
 62
7
100
AcDbLine
 10
6.479221
 20
17.033859
 30
0.0
 11
6.566231
 21
17.193728
 31
0.0
  0
LINE
  5
1b0
100
AcDbEntity
  8
Layer_1
 62
7
100
AcDbLine
 10
6.566231
 20
17.193728
 30
0.0
 11
7.335569
 21
17.088409
 31
0.0
  0
LINE
  5
1b1
100
AcDbEntity
  8
Layer_1
 62
7
100
AcDbLine
 10
7.335569
 20
17.088409
 30
0.0
 11
8.063118
 21
16.950260
 31
0.0
  0
LINE
  5
1b2
100
AcDbEntity
  8
Layer_1
 62
7
100
AcDbLine
 10
8.063118
 20
16.950260
 30
0.0
 11
8.760533
 21
16.768152
 31
0.0
  0
LINE
  5
1b3
100
AcDbEntity
  8
Layer_1
 62
7
100
AcDbLine
 10
8.760533
 20
16.768152
 30
0.0
 11
9.439471
 21
16.530958
 31
0.0
  0
LINE
  5
1b4
100
AcDbEntity
  8
Layer_1
 62
7
100
AcDbLine
 10
9.439471
 20
16.530958
 30
0.0
 11
10.111588
 21
16.227552
 31
0.0
  0
LINE
  5
1b5
100
AcDbEntity
  8
Layer_1
 62
7
100
AcDbLine
 10
10.111588
 20
16.227552
 30
0.0
 11
10.788539
 21
15.846806
 31
0.0
  0
LINE
  5
1b6
100
AcDbEntity
  8
Layer_1
 62
7
100
AcDbLine
 10
10.788539
 20
15.846806
 30
0.0
 11
11.481981
 21
15.377592
 31
0.0
  0
LINE
  5
1b7
100
AcDbEntity
  8
Layer_1
 62
7
100
AcDbLine
 10
11.481981
 20
15.377592
 30
0.0
 11
12.203570
 21
14.808783
 31
0.0
  0
ENDSEC
  0
SECTION
  2
OBJECTS
  0
DICTIONARY
  5
C
330
0
100
AcDbDictionary
  3
ACAD_GROUP
350
D
  3
ACAD_MLINESTYLE
350
17
  0
DICTIONARY
  5
D
330
C
100
AcDbDictionary
  0
DICTIONARY
  5
1A
330
C
100
AcDbDictionary
  0
DICTIONARY
  5
17
330
C
100
AcDbDictionary
  3
STANDARD
350
18
  0
DICTIONARY
  5
19
330
C
100
AcDbDictionary
  0
ENDSEC
  0
EOF
