999
DXF created by Inkscape
  0
SECTION
  2
HEADER
  9
$ACADVER
  1
AC1014
  9
$HANDSEED
  5
FFFF
  9
$MEASUREMENT
 70
     1
  0
ENDSEC
  0
SECTION
  2
TABLES
  0
TABLE
  2
VPORT
  5
8
330
0
100
AcDbSymbolTable
 70
     4
  0
VPORT
  5
2E
330
8
100
AcDbSymbolTableRecord
100
AcDbViewportTableRecord
  2
*ACTIVE
 70
     0
 10
0.0
 20
0.0
 11
1.0
 21
1.0
 12
210.0
 22
148.5
 13
0.0
 23
0.0
 14
10.0
 24
10.0
 15
10.0
 25
10.0
 16
0.0
 26
0.0
 36
1.0
 17
0.0
 27
0.0
 37
0.0
 40
341.0
 41
1.24
 42
50.0
 43
0.0
 44
0.0
 50
0.0
 51
0.0
 71
     0
 72
   100
 73
     1
 74
     3
 75
     0
 76
     0
 77
     0
 78
     0
  0
ENDTAB
  0
TABLE
  2
LTYPE
  5
5
330
0
100
AcDbSymbolTable
 70
     1
  0
LTYPE
  5
14
330
5
100
AcDbSymbolTableRecord
100
AcDbLinetypeTableRecord
  2
BYBLOCK
 70
     0
  3

 72
    65
 73
     0
 40
0.0
  0
LTYPE
  5
15
330
5
100
AcDbSymbolTableRecord
100
AcDbLinetypeTableRecord
  2
BYLAYER
 70
     0
  3

 72
    65
 73
     0
 40
0.0
  0
LTYPE
  5
16
330
5
100
AcDbSymbolTableRecord
100
AcDbLinetypeTableRecord
  2
CONTINUOUS
 70
     0
  3
Solid line
 72
    65
 73
     0
 40
0.0
  0
ENDTAB
  0
TABLE
  2
LAYER
  5
2
100
AcDbSymbolTable
 70
2
  0
LAYER
  5
50
100
AcDbSymbolTableRecord
100
AcDbLayerTableRecord
  2
0
 70
0
  6
CONTINUOUS
  0
LAYER
  5
51
100
AcDbSymbolTableRecord
100
AcDbLayerTableRecord
  2
Layer_1
 70
0
  6
CONTINUOUS
  0
ENDTAB
  0
TABLE
  2
STYLE
  5
3
330
0
100
AcDbSymbolTable
 70
     1
  0
STYLE
  5
11
330
3
100
AcDbSymbolTableRecord
100
AcDbTextStyleTableRecord
  2
STANDARD
 70
     0
 40
0.0
 41
1.0
 50
0.0
 71
     0
 42
2.5
  3
txt
  4

  0
ENDTAB
  0
TABLE
  2
VIEW
  5
6
330
0
100
AcDbSymbolTable
 70
     0
  0
ENDTAB
  0
TABLE
  2
UCS
  5
7
330
0
100
AcDbSymbolTable
 70
     0
  0
ENDTAB
  0
TABLE
  2
APPID
  5
9
330
0
100
AcDbSymbolTable
 70
     2
  0
APPID
  5
12
330
9
100
AcDbSymbolTableRecord
100
AcDbRegAppTableRecord
  2
ACAD
 70
     0
  0
ENDTAB
  0
TABLE
  2
DIMSTYLE
  5
A
330
0
100
AcDbSymbolTable
 70
     1
  0
DIMSTYLE
105
27
330
A
100
AcDbSymbolTableRecord
100
AcDbDimStyleTableRecord
  2
ISO-25
 70
     0
  3

  4

  5

  6

  7

 40
1.0
 41
2.5
 42
0.625
 43
3.75
 44
1.25
 45
0.0
 46
0.0
 47
0.0
 48
0.0
140
2.5
141
2.5
142
0.0
143
0.03937007874016
144
1.0
145
0.0
146
1.0
147
0.625
 71
     0
 72
     0
 73
     0
 74
     0
 75
     0
 76
     0
 77
     1
 78
     8
170
     0
171
     3
172
     1
173
     0
174
     0
175
     0
176
     0
177
     0
178
     0
270
     2
271
     2
272
     2
273
     2
274
     3
340
11
275
     0
280
     0
281
     0
282
     0
283
     0
284
     8
285
     0
286
     0
287
     3
288
     0
  0
ENDTAB
  0
TABLE
  2
BLOCK_RECORD
  5
1
330
0
100
AcDbSymbolTable
 70
     1
  0
BLOCK_RECORD
  5
1F
330
1
100
AcDbSymbolTableRecord
100
AcDbBlockTableRecord
  2
*MODEL_SPACE
  0
BLOCK_RECORD
  5
1B
330
1
100
AcDbSymbolTableRecord
100
AcDbBlockTableRecord
  2
*PAPER_SPACE
  0
ENDTAB
  0
ENDSEC
  0
SECTION
  2
BLOCKS
  0
BLOCK
  5
20
330
1F
100
AcDbEntity
  8
0
100
AcDbBlockBegin
  2
*MODEL_SPACE
 70
     0
 10
0.0
 20
0.0
 30
0.0
  3
*MODEL_SPACE
  1

  0
ENDBLK
  5
21
330
1F
100
AcDbEntity
  8
0
100
AcDbBlockEnd
  0
BLOCK
  5
1C
330
1B
100
AcDbEntity
 67
     1
  8
0
100
AcDbBlockBegin
  2
*PAPER_SPACE
  1

  0
ENDBLK
  5
1D
330
1B
100
AcDbEntity
 67
     1
  8
0
100
AcDbBlockEnd
  0
ENDSEC
  0
SECTION
  2
ENTITIES
  0
LINE
  5
100
100
AcDbEntity
  8
Layer_1
 62
7
100
AcDbLine
 10
1.591610
 20
14.489290
 30
0.0
 11
1.207857
 21
14.022910
 31
0.0
  0
LINE
  5
101
100
AcDbEntity
  8
Layer_1
 62
7
100
AcDbLine
 10
1.207857
 20
14.022910
 30
0.0
 11
0.887944
 21
13.523794
 31
0.0
  0
LINE
  5
102
100
AcDbEntity
  8
Layer_1
 62
7
100
AcDbLine
 10
0.887944
 20
13.523794
 30
0.0
 11
0.628706
 21
13.000178
 31
0.0
  0
LINE
  5
103
100
AcDbEntity
  8
Layer_1
 62
7
100
AcDbLine
 10
0.628706
 20
13.000178
 30
0.0
 11
0.426974
 21
12.460300
 31
0.0
  0
LINE
  5
104
100
AcDbEntity
  8
Layer_1
 62
7
100
AcDbLine
 10
0.426974
 20
12.460300
 30
0.0
 11
0.279581
 21
11.912394
 31
0.0
  0
LINE
  5
105
100
AcDbEntity
  8
Layer_1
 62
7
100
AcDbLine
 10
0.279581
 20
11.912394
 30
0.0
 11
0.183362
 21
11.364697
 31
0.0
  0
LINE
  5
106
100
AcDbEntity
  8
Layer_1
 62
7
100
AcDbLine
 10
0.183362
 20
11.364697
 30
0.0
 11
0.135148
 21
10.825446
 31
0.0
  0
LINE
  5
107
100
AcDbEntity
  8
Layer_1
 62
7
100
AcDbLine
 10
0.135148
 20
10.825446
 30
0.0
 11
0.131775
 21
10.302876
 31
0.0
  0
LINE
  5
108
100
AcDbEntity
  8
Layer_1
 62
7
100
AcDbLine
 10
0.131775
 20
10.302876
 30
0.0
 11
0.142931
 21
9.912158
 31
0.0
  0
LINE
  5
109
100
AcDbEntity
  8
Layer_1
 62
7
100
AcDbLine
 10
0.142931
 20
9.912158
 30
0.0
 11
0.217503
 21
9.456458
 31
0.0
  0
LINE
  5
10a
100
AcDbEntity
  8
Layer_1
 62
7
100
AcDbLine
 10
0.217503
 20
9.456458
 30
0.0
 11
0.358015
 21
8.942865
 31
0.0
  0
LINE
  5
10b
100
AcDbEntity
  8
Layer_1
 62
7
100
AcDbLine
 10
0.358015
 20
8.942865
 30
0.0
 11
0.566998
 21
8.378469
 31
0.0
  0
LINE
  5
10c
100
AcDbEntity
  8
Layer_1
 62
7
100
AcDbLine
 10
0.566998
 20
8.378469
 30
0.0
 11
0.846977
 21
7.770358
 31
0.0
  0
LINE
  5
10d
100
AcDbEntity
  8
Layer_1
 62
7
100
AcDbLine
 10
0.846977
 20
7.770358
 30
0.0
 11
1.200482
 21
7.125622
 31
0.0
  0
LINE
  5
10e
100
AcDbEntity
  8
Layer_1
 62
7
100
AcDbLine
 10
1.200482
 20
7.125622
 30
0.0
 11
1.630040
 21
6.451349
 31
0.0
  0
LINE
  5
10f
100
AcDbEntity
  8
Layer_1
 62
7
100
AcDbLine
 10
1.630040
 20
6.451349
 30
0.0
 11
2.138179
 21
5.754628
 31
0.0
  0
LINE
  5
110
100
AcDbEntity
  8
Layer_1
 62
7
100
AcDbLine
 10
2.138179
 20
5.754628
 30
0.0
 11
2.166185
 21
5.704793
 31
0.0
  0
LINE
  5
111
100
AcDbEntity
  8
Layer_1
 62
7
100
AcDbLine
 10
2.166185
 20
5.704793
 30
0.0
 11
2.240806
 21
5.564295
 31
0.0
  0
LINE
  5
112
100
AcDbEntity
  8
Layer_1
 62
7
100
AcDbLine
 10
2.240806
 20
5.564295
 30
0.0
 11
2.347946
 21
5.346641
 31
0.0
  0
LINE
  5
113
100
AcDbEntity
  8
Layer_1
 62
7
100
AcDbLine
 10
2.347946
 20
5.346641
 30
0.0
 11
2.473509
 21
5.065340
 31
0.0
  0
LINE
  5
114
100
AcDbEntity
  8
Layer_1
 62
7
100
AcDbLine
 10
2.473509
 20
5.065340
 30
0.0
 11
2.603399
 21
4.733902
 31
0.0
  0
LINE
  5
115
100
AcDbEntity
  8
Layer_1
 62
7
100
AcDbLine
 10
2.603399
 20
4.733902
 30
0.0
 11
2.723520
 21
4.365833
 31
0.0
  0
LINE
  5
116
100
AcDbEntity
  8
Layer_1
 62
7
100
AcDbLine
 10
2.723520
 20
4.365833
 30
0.0
 11
2.819775
 21
3.974644
 31
0.0
  0
LINE
  5
117
100
AcDbEntity
  8
Layer_1
 62
7
100
AcDbLine
 10
2.819775
 20
3.974644
 30
0.0
 11
2.878070
 21
3.573842
 31
0.0
  0
LINE
  5
118
100
AcDbEntity
  8
Layer_1
 62
7
100
AcDbLine
 10
2.878070
 20
3.573842
 30
0.0
 11
2.821341
 21
3.054711
 31
0.0
  0
LINE
  5
119
100
AcDbEntity
  8
Layer_1
 62
7
100
AcDbLine
 10
2.821341
 20
3.054711
 30
0.0
 11
2.743574
 21
2.614657
 31
0.0
  0
LINE
  5
11a
100
AcDbEntity
  8
Layer_1
 62
7
100
AcDbLine
 10
2.743574
 20
2.614657
 30
0.0
 11
2.653581
 21
2.250639
 31
0.0
  0
LINE
  5
11b
100
AcDbEntity
  8
Layer_1
 62
7
100
AcDbLine
 10
2.653581
 20
2.250639
 30
0.0
 11
2.560182
 21
1.959620
 31
0.0
  0
LINE
  5
11c
100
AcDbEntity
  8
Layer_1
 62
7
100
AcDbLine
 10
2.560182
 20
1.959620
 30
0.0
 11
2.472191
 21
1.738562
 31
0.0
  0
LINE
  5
11d
100
AcDbEntity
  8
Layer_1
 62
7
100
AcDbLine
 10
2.472191
 20
1.738562
 30
0.0
 11
2.398425
 21
1.584425
 31
0.0
  0
LINE
  5
11e
100
AcDbEntity
  8
Layer_1
 62
7
100
AcDbLine
 10
2.398425
 20
1.584425
 30
0.0
 11
2.347700
 21
1.494171
 31
0.0
  0
LINE
  5
11f
100
AcDbEntity
  8
Layer_1
 62
7
100
AcDbLine
 10
2.347700
 20
1.494171
 30
0.0
 11
2.328831
 21
1.464762
 31
0.0
  0
LINE
  5
120
100
AcDbEntity
  8
Layer_1
 62
7
100
AcDbLine
 10
2.328831
 20
1.464762
 30
0.0
 11
2.234799
 21
1.300472
 31
0.0
  0
LINE
  5
121
100
AcDbEntity
  8
Layer_1
 62
7
100
AcDbLine
 10
2.234799
 20
1.300472
 30
0.0
 11
2.140767
 21
1.136182
 31
0.0
  0
LINE
  5
122
100
AcDbEntity
  8
Layer_1
 62
7
100
AcDbLine
 10
2.140767
 20
1.136182
 30
0.0
 11
2.046734
 21
0.971892
 31
0.0
  0
LINE
  5
123
100
AcDbEntity
  8
Layer_1
 62
7
100
AcDbLine
 10
2.046734
 20
0.971892
 30
0.0
 11
1.952702
 21
0.807602
 31
0.0
  0
LINE
  5
124
100
AcDbEntity
  8
Layer_1
 62
7
100
AcDbLine
 10
1.952702
 20
0.807602
 30
0.0
 11
1.858670
 21
0.643312
 31
0.0
  0
LINE
  5
125
100
AcDbEntity
  8
Layer_1
 62
7
100
AcDbLine
 10
1.858670
 20
0.643312
 30
0.0
 11
1.764637
 21
0.479022
 31
0.0
  0
LINE
  5
126
100
AcDbEntity
  8
Layer_1
 62
7
100
AcDbLine
 10
1.764637
 20
0.479022
 30
0.0
 11
1.670605
 21
0.314732
 31
0.0
  0
LINE
  5
127
100
AcDbEntity
  8
Layer_1
 62
7
100
AcDbLine
 10
1.670605
 20
0.314732
 30
0.0
 11
1.576573
 21
0.131775
 31
0.0
  0
LINE
  5
128
100
AcDbEntity
  8
Layer_1
 62
7
100
AcDbLine
 10
1.576573
 20
0.131775
 30
0.0
 11
2.939444
 21
0.131775
 31
0.0
  0
LINE
  5
129
100
AcDbEntity
  8
Layer_1
 62
7
100
AcDbLine
 10
2.939444
 20
0.131775
 30
0.0
 11
4.302315
 21
0.131775
 31
0.0
  0
LINE
  5
12a
100
AcDbEntity
  8
Layer_1
 62
7
100
AcDbLine
 10
4.302315
 20
0.131775
 30
0.0
 11
5.665186
 21
0.131775
 31
0.0
  0
LINE
  5
12b
100
AcDbEntity
  8
Layer_1
 62
7
100
AcDbLine
 10
5.665186
 20
0.131775
 30
0.0
 11
7.028057
 21
0.131775
 31
0.0
  0
LINE
  5
12c
100
AcDbEntity
  8
Layer_1
 62
7
100
AcDbLine
 10
7.028057
 20
0.131775
 30
0.0
 11
8.390928
 21
0.131775
 31
0.0
  0
LINE
  5
12d
100
AcDbEntity
  8
Layer_1
 62
7
100
AcDbLine
 10
8.390928
 20
0.131775
 30
0.0
 11
9.753799
 21
0.131775
 31
0.0
  0
LINE
  5
12e
100
AcDbEntity
  8
Layer_1
 62
7
100
AcDbLine
 10
9.753799
 20
0.131775
 30
0.0
 11
11.116670
 21
0.131775
 31
0.0
  0
LINE
  5
12f
100
AcDbEntity
  8
Layer_1
 62
7
100
AcDbLine
 10
11.116670
 20
0.131775
 30
0.0
 11
12.568225
 21
0.131775
 31
0.0
  0
LINE
  5
130
100
AcDbEntity
  8
Layer_1
 62
7
100
AcDbLine
 10
12.568225
 20
0.131775
 30
0.0
 11
12.361864
 21
1.017477
 31
0.0
  0
LINE
  5
131
100
AcDbEntity
  8
Layer_1
 62
7
100
AcDbLine
 10
12.361864
 20
1.017477
 30
0.0
 11
12.240431
 21
1.807287
 31
0.0
  0
LINE
  5
132
100
AcDbEntity
  8
Layer_1
 62
7
100
AcDbLine
 10
12.240431
 20
1.807287
 30
0.0
 11
12.106884
 21
2.537296
 31
0.0
  0
LINE
  5
133
100
AcDbEntity
  8
Layer_1
 62
7
100
AcDbLine
 10
12.106884
 20
2.537296
 30
0.0
 11
11.952866
 21
3.221641
 31
0.0
  0
LINE
  5
134
100
AcDbEntity
  8
Layer_1
 62
7
100
AcDbLine
 10
11.952866
 20
3.221641
 30
0.0
 11
11.770019
 21
3.874462
 31
0.0
  0
LINE
  5
135
100
AcDbEntity
  8
Layer_1
 62
7
100
AcDbLine
 10
11.770019
 20
3.874462
 30
0.0
 11
11.549987
 21
4.509896
 31
0.0
  0
LINE
  5
136
100
AcDbEntity
  8
Layer_1
 62
7
100
AcDbLine
 10
11.549987
 20
4.509896
 30
0.0
 11
11.284411
 21
5.142082
 31
0.0
  0
LINE
  5
137
100
AcDbEntity
  8
Layer_1
 62
7
100
AcDbLine
 10
11.284411
 20
5.142082
 30
0.0
 11
10.964934
 21
5.785158
 31
0.0
  0
LINE
  5
138
100
AcDbEntity
  8
Layer_1
 62
7
100
AcDbLine
 10
10.964934
 20
5.785158
 30
0.0
 11
10.577400
 21
6.417406
 31
0.0
  0
LINE
  5
139
100
AcDbEntity
  8
Layer_1
 62
7
100
AcDbLine
 10
10.577400
 20
6.417406
 30
0.0
 11
10.134812
 21
7.000662
 31
0.0
  0
LINE
  5
13a
100
AcDbEntity
  8
Layer_1
 62
7
100
AcDbLine
 10
10.134812
 20
7.000662
 30
0.0
 11
9.641034
 21
7.528290
 31
0.0
  0
LINE
  5
13b
100
AcDbEntity
  8
Layer_1
 62
7
100
AcDbLine
 10
9.641034
 20
7.528290
 30
0.0
 11
9.099933
 21
7.993652
 31
0.0
  0
LINE
  5
13c
100
AcDbEntity
  8
Layer_1
 62
7
100
AcDbLine
 10
9.099933
 20
7.993652
 30
0.0
 11
8.515374
 21
8.390113
 31
0.0
  0
LINE
  5
13d
100
AcDbEntity
  8
Layer_1
 62
7
100
AcDbLine
 10
8.515374
 20
8.390113
 30
0.0
 11
7.891223
 21
8.711036
 31
0.0
  0
LINE
  5
13e
100
AcDbEntity
  8
Layer_1
 62
7
100
AcDbLine
 10
7.891223
 20
8.711036
 30
0.0
 11
7.231347
 21
8.949785
 31
0.0
  0
LINE
  5
13f
100
AcDbEntity
  8
Layer_1
 62
7
100
AcDbLine
 10
7.231347
 20
8.949785
 30
0.0
 11
6.539611
 21
9.099722
 31
0.0
  0
LINE
  5
140
100
AcDbEntity
  8
Layer_1
 62
7
100
AcDbLine
 10
6.539611
 20
9.099722
 30
0.0
 11
6.484315
 21
9.151130
 31
0.0
  0
LINE
  5
141
100
AcDbEntity
  8
Layer_1
 62
7
100
AcDbLine
 10
6.484315
 20
9.151130
 30
0.0
 11
6.429019
 21
9.202538
 31
0.0
  0
LINE
  5
142
100
AcDbEntity
  8
Layer_1
 62
7
100
AcDbLine
 10
6.429019
 20
9.202538
 30
0.0
 11
6.373723
 21
9.253946
 31
0.0
  0
LINE
  5
143
100
AcDbEntity
  8
Layer_1
 62
7
100
AcDbLine
 10
6.373723
 20
9.253946
 30
0.0
 11
6.318427
 21
9.305355
 31
0.0
  0
LINE
  5
144
100
AcDbEntity
  8
Layer_1
 62
7
100
AcDbLine
 10
6.318427
 20
9.305355
 30
0.0
 11
6.263131
 21
9.356763
 31
0.0
  0
LINE
  5
145
100
AcDbEntity
  8
Layer_1
 62
7
100
AcDbLine
 10
6.263131
 20
9.356763
 30
0.0
 11
6.207835
 21
9.408171
 31
0.0
  0
LINE
  5
146
100
AcDbEntity
  8
Layer_1
 62
7
100
AcDbLine
 10
6.207835
 20
9.408171
 30
0.0
 11
6.152539
 21
9.459579
 31
0.0
  0
LINE
  5
147
100
AcDbEntity
  8
Layer_1
 62
7
100
AcDbLine
 10
6.152539
 20
9.459579
 30
0.0
 11
6.097243
 21
9.510987
 31
0.0
  0
LINE
  5
148
100
AcDbEntity
  8
Layer_1
 62
7
100
AcDbLine
 10
6.097243
 20
9.510987
 30
0.0
 11
6.184971
 21
9.519205
 31
0.0
  0
LINE
  5
149
100
AcDbEntity
  8
Layer_1
 62
7
100
AcDbLine
 10
6.184971
 20
9.519205
 30
0.0
 11
6.272699
 21
9.527423
 31
0.0
  0
LINE
  5
14a
100
AcDbEntity
  8
Layer_1
 62
7
100
AcDbLine
 10
6.272699
 20
9.527423
 30
0.0
 11
6.360427
 21
9.535642
 31
0.0
  0
LINE
  5
14b
100
AcDbEntity
  8
Layer_1
 62
7
100
AcDbLine
 10
6.360427
 20
9.535642
 30
0.0
 11
6.448155
 21
9.543860
 31
0.0
  0
LINE
  5
14c
100
AcDbEntity
  8
Layer_1
 62
7
100
AcDbLine
 10
6.448155
 20
9.543860
 30
0.0
 11
6.535883
 21
9.552078
 31
0.0
  0
LINE
  5
14d
100
AcDbEntity
  8
Layer_1
 62
7
100
AcDbLine
 10
6.535883
 20
9.552078
 30
0.0
 11
6.623611
 21
9.560297
 31
0.0
  0
LINE
  5
14e
100
AcDbEntity
  8
Layer_1
 62
7
100
AcDbLine
 10
6.623611
 20
9.560297
 30
0.0
 11
6.711339
 21
9.568515
 31
0.0
  0
LINE
  5
14f
100
AcDbEntity
  8
Layer_1
 62
7
100
AcDbLine
 10
6.711339
 20
9.568515
 30
0.0
 11
6.799067
 21
9.576733
 31
0.0
  0
LINE
  5
150
100
AcDbEntity
  8
Layer_1
 62
7
100
AcDbLine
 10
6.799067
 20
9.576733
 30
0.0
 11
6.872085
 21
9.615224
 31
0.0
  0
LINE
  5
151
100
AcDbEntity
  8
Layer_1
 62
7
100
AcDbLine
 10
6.872085
 20
9.615224
 30
0.0
 11
6.945103
 21
9.653715
 31
0.0
  0
LINE
  5
152
100
AcDbEntity
  8
Layer_1
 62
7
100
AcDbLine
 10
6.945103
 20
9.653715
 30
0.0
 11
7.018121
 21
9.692205
 31
0.0
  0
LINE
  5
153
100
AcDbEntity
  8
Layer_1
 62
7
100
AcDbLine
 10
7.018121
 20
9.692205
 30
0.0
 11
7.091138
 21
9.730696
 31
0.0
  0
LINE
  5
154
100
AcDbEntity
  8
Layer_1
 62
7
100
AcDbLine
 10
7.091138
 20
9.730696
 30
0.0
 11
7.164156
 21
9.769187
 31
0.0
  0
LINE
  5
155
100
AcDbEntity
  8
Layer_1
 62
7
100
AcDbLine
 10
7.164156
 20
9.769187
 30
0.0
 11
7.237173
 21
9.807677
 31
0.0
  0
LINE
  5
156
100
AcDbEntity
  8
Layer_1
 62
7
100
AcDbLine
 10
7.237173
 20
9.807677
 30
0.0
 11
7.310191
 21
9.846168
 31
0.0
  0
LINE
  5
157
100
AcDbEntity
  8
Layer_1
 62
7
100
AcDbLine
 10
7.310191
 20
9.846168
 30
0.0
 11
7.383209
 21
9.884659
 31
0.0
  0
LINE
  5
158
100
AcDbEntity
  8
Layer_1
 62
7
100
AcDbLine
 10
7.383209
 20
9.884659
 30
0.0
 11
7.493611
 21
9.762865
 31
0.0
  0
LINE
  5
159
100
AcDbEntity
  8
Layer_1
 62
7
100
AcDbLine
 10
7.493611
 20
9.762865
 30
0.0
 11
7.604013
 21
9.641072
 31
0.0
  0
LINE
  5
15a
100
AcDbEntity
  8
Layer_1
 62
7
100
AcDbLine
 10
7.604013
 20
9.641072
 30
0.0
 11
7.714415
 21
9.519278
 31
0.0
  0
LINE
  5
15b
100
AcDbEntity
  8
Layer_1
 62
7
100
AcDbLine
 10
7.714415
 20
9.519278
 30
0.0
 11
7.824817
 21
9.397484
 31
0.0
  0
LINE
  5
15c
100
AcDbEntity
  8
Layer_1
 62
7
100
AcDbLine
 10
7.824817
 20
9.397484
 30
0.0
 11
7.935220
 21
9.275691
 31
0.0
  0
LINE
  5
15d
100
AcDbEntity
  8
Layer_1
 62
7
100
AcDbLine
 10
7.935220
 20
9.275691
 30
0.0
 11
8.045622
 21
9.153897
 31
0.0
  0
LINE
  5
15e
100
AcDbEntity
  8
Layer_1
 62
7
100
AcDbLine
 10
8.045622
 20
9.153897
 30
0.0
 11
8.156024
 21
9.032104
 31
0.0
  0
LINE
  5
15f
100
AcDbEntity
  8
Layer_1
 62
7
100
AcDbLine
 10
8.156024
 20
9.032104
 30
0.0
 11
8.266426
 21
8.910310
 31
0.0
  0
LINE
  5
160
100
AcDbEntity
  8
Layer_1
 62
7
100
AcDbLine
 10
8.266426
 20
8.910310
 30
0.0
 11
8.455559
 21
8.725735
 31
0.0
  0
LINE
  5
161
100
AcDbEntity
  8
Layer_1
 62
7
100
AcDbLine
 10
8.455559
 20
8.725735
 30
0.0
 11
8.644692
 21
8.541160
 31
0.0
  0
LINE
  5
162
100
AcDbEntity
  8
Layer_1
 62
7
100
AcDbLine
 10
8.644692
 20
8.541160
 30
0.0
 11
8.833825
 21
8.356585
 31
0.0
  0
LINE
  5
163
100
AcDbEntity
  8
Layer_1
 62
7
100
AcDbLine
 10
8.833825
 20
8.356585
 30
0.0
 11
9.022959
 21
8.172010
 31
0.0
  0
LINE
  5
164
100
AcDbEntity
  8
Layer_1
 62
7
100
AcDbLine
 10
9.022959
 20
8.172010
 30
0.0
 11
9.212091
 21
7.987435
 31
0.0
  0
LINE
  5
165
100
AcDbEntity
  8
Layer_1
 62
7
100
AcDbLine
 10
9.212091
 20
7.987435
 30
0.0
 11
9.401224
 21
7.802860
 31
0.0
  0
LINE
  5
166
100
AcDbEntity
  8
Layer_1
 62
7
100
AcDbLine
 10
9.401224
 20
7.802860
 30
0.0
 11
9.590357
 21
7.618285
 31
0.0
  0
LINE
  5
167
100
AcDbEntity
  8
Layer_1
 62
7
100
AcDbLine
 10
9.590357
 20
7.618285
 30
0.0
 11
9.779491
 21
7.433710
 31
0.0
  0
LINE
  5
168
100
AcDbEntity
  8
Layer_1
 62
7
100
AcDbLine
 10
9.779491
 20
7.433710
 30
0.0
 11
9.875142
 21
7.494615
 31
0.0
  0
LINE
  5
169
100
AcDbEntity
  8
Layer_1
 62
7
100
AcDbLine
 10
9.875142
 20
7.494615
 30
0.0
 11
9.970792
 21
7.555432
 31
0.0
  0
LINE
  5
16a
100
AcDbEntity
  8
Layer_1
 62
7
100
AcDbLine
 10
9.970792
 20
7.555432
 30
0.0
 11
10.066443
 21
7.616248
 31
0.0
  0
LINE
  5
16b
100
AcDbEntity
  8
Layer_1
 62
7
100
AcDbLine
 10
10.066443
 20
7.616248
 30
0.0
 11
10.162094
 21
7.677065
 31
0.0
  0
LINE
  5
16c
100
AcDbEntity
  8
Layer_1
 62
7
100
AcDbLine
 10
10.162094
 20
7.677065
 30
0.0
 11
10.257744
 21
7.737882
 31
0.0
  0
LINE
  5
16d
100
AcDbEntity
  8
Layer_1
 62
7
100
AcDbLine
 10
10.257744
 20
7.737882
 30
0.0
 11
10.353394
 21
7.798699
 31
0.0
  0
LINE
  5
16e
100
AcDbEntity
  8
Layer_1
 62
7
100
AcDbLine
 10
10.353394
 20
7.798699
 30
0.0
 11
10.449045
 21
7.859516
 31
0.0
  0
LINE
  5
16f
100
AcDbEntity
  8
Layer_1
 62
7
100
AcDbLine
 10
10.449045
 20
7.859516
 30
0.0
 11
10.544695
 21
7.920333
 31
0.0
  0
LINE
  5
170
100
AcDbEntity
  8
Layer_1
 62
7
100
AcDbLine
 10
10.544695
 20
7.920333
 30
0.0
 11
10.479326
 21
7.962807
 31
0.0
  0
LINE
  5
171
100
AcDbEntity
  8
Layer_1
 62
7
100
AcDbLine
 10
10.479326
 20
7.962807
 30
0.0
 11
10.413956
 21
8.005280
 31
0.0
  0
LINE
  5
172
100
AcDbEntity
  8
Layer_1
 62
7
100
AcDbLine
 10
10.413956
 20
8.005280
 30
0.0
 11
10.348587
 21
8.047755
 31
0.0
  0
LINE
  5
173
100
AcDbEntity
  8
Layer_1
 62
7
100
AcDbLine
 10
10.348587
 20
8.047755
 30
0.0
 11
10.283217
 21
8.090229
 31
0.0
  0
LINE
  5
174
100
AcDbEntity
  8
Layer_1
 62
7
100
AcDbLine
 10
10.283217
 20
8.090229
 30
0.0
 11
10.217848
 21
8.132703
 31
0.0
  0
LINE
  5
175
100
AcDbEntity
  8
Layer_1
 62
7
100
AcDbLine
 10
10.217848
 20
8.132703
 30
0.0
 11
10.152478
 21
8.175177
 31
0.0
  0
LINE
  5
176
100
AcDbEntity
  8
Layer_1
 62
7
100
AcDbLine
 10
10.152478
 20
8.175177
 30
0.0
 11
10.087109
 21
8.217651
 31
0.0
  0
LINE
  5
177
100
AcDbEntity
  8
Layer_1
 62
7
100
AcDbLine
 10
10.087109
 20
8.217651
 30
0.0
 11
10.021740
 21
8.260125
 31
0.0
  0
LINE
  5
178
100
AcDbEntity
  8
Layer_1
 62
7
100
AcDbLine
 10
10.021740
 20
8.260125
 30
0.0
 11
10.136402
 21
8.282229
 31
0.0
  0
LINE
  5
179
100
AcDbEntity
  8
Layer_1
 62
7
100
AcDbLine
 10
10.136402
 20
8.282229
 30
0.0
 11
10.251063
 21
8.304332
 31
0.0
  0
LINE
  5
17a
100
AcDbEntity
  8
Layer_1
 62
7
100
AcDbLine
 10
10.251063
 20
8.304332
 30
0.0
 11
10.365724
 21
8.326436
 31
0.0
  0
LINE
  5
17b
100
AcDbEntity
  8
Layer_1
 62
7
100
AcDbLine
 10
10.365724
 20
8.326436
 30
0.0
 11
10.480386
 21
8.348539
 31
0.0
  0
LINE
  5
17c
100
AcDbEntity
  8
Layer_1
 62
7
100
AcDbLine
 10
10.480386
 20
8.348539
 30
0.0
 11
10.595047
 21
8.370643
 31
0.0
  0
LINE
  5
17d
100
AcDbEntity
  8
Layer_1
 62
7
100
AcDbLine
 10
10.595047
 20
8.370643
 30
0.0
 11
10.709708
 21
8.392747
 31
0.0
  0
LINE
  5
17e
100
AcDbEntity
  8
Layer_1
 62
7
100
AcDbLine
 10
10.709708
 20
8.392747
 30
0.0
 11
10.824369
 21
8.414850
 31
0.0
  0
LINE
  5
17f
100
AcDbEntity
  8
Layer_1
 62
7
100
AcDbLine
 10
10.824369
 20
8.414850
 30
0.0
 11
10.939031
 21
8.436954
 31
0.0
  0
LINE
  5
180
100
AcDbEntity
  8
Layer_1
 62
7
100
AcDbLine
 10
10.939031
 20
8.436954
 30
0.0
 11
11.043588
 21
8.520683
 31
0.0
  0
LINE
  5
181
100
AcDbEntity
  8
Layer_1
 62
7
100
AcDbLine
 10
11.043588
 20
8.520683
 30
0.0
 11
11.148145
 21
8.604412
 31
0.0
  0
LINE
  5
182
100
AcDbEntity
  8
Layer_1
 62
7
100
AcDbLine
 10
11.148145
 20
8.604412
 30
0.0
 11
11.252702
 21
8.688141
 31
0.0
  0
LINE
  5
183
100
AcDbEntity
  8
Layer_1
 62
7
100
AcDbLine
 10
11.252702
 20
8.688141
 30
0.0
 11
11.357260
 21
8.771869
 31
0.0
  0
LINE
  5
184
100
AcDbEntity
  8
Layer_1
 62
7
100
AcDbLine
 10
11.357260
 20
8.771869
 30
0.0
 11
11.461817
 21
8.855598
 31
0.0
  0
LINE
  5
185
100
AcDbEntity
  8
Layer_1
 62
7
100
AcDbLine
 10
11.461817
 20
8.855598
 30
0.0
 11
11.566374
 21
8.939327
 31
0.0
  0
LINE
  5
186
100
AcDbEntity
  8
Layer_1
 62
7
100
AcDbLine
 10
11.566374
 20
8.939327
 30
0.0
 11
11.670931
 21
9.023056
 31
0.0
  0
LINE
  5
187
100
AcDbEntity
  8
Layer_1
 62
7
100
AcDbLine
 10
11.670931
 20
9.023056
 30
0.0
 11
11.775489
 21
9.106784
 31
0.0
  0
LINE
  5
188
100
AcDbEntity
  8
Layer_1
 62
7
100
AcDbLine
 10
11.775489
 20
9.106784
 30
0.0
 11
11.800019
 21
9.246146
 31
0.0
  0
LINE
  5
189
100
AcDbEntity
  8
Layer_1
 62
7
100
AcDbLine
 10
11.800019
 20
9.246146
 30
0.0
 11
11.824550
 21
9.385507
 31
0.0
  0
LINE
  5
18a
100
AcDbEntity
  8
Layer_1
 62
7
100
AcDbLine
 10
11.824550
 20
9.385507
 30
0.0
 11
11.849081
 21
9.524869
 31
0.0
  0
LINE
  5
18b
100
AcDbEntity
  8
Layer_1
 62
7
100
AcDbLine
 10
11.849081
 20
9.524869
 30
0.0
 11
11.873612
 21
9.664231
 31
0.0
  0
LINE
  5
18c
100
AcDbEntity
  8
Layer_1
 62
7
100
AcDbLine
 10
11.873612
 20
9.664231
 30
0.0
 11
11.898142
 21
9.803592
 31
0.0
  0
LINE
  5
18d
100
AcDbEntity
  8
Layer_1
 62
7
100
AcDbLine
 10
11.898142
 20
9.803592
 30
0.0
 11
11.922673
 21
9.942954
 31
0.0
  0
LINE
  5
18e
100
AcDbEntity
  8
Layer_1
 62
7
100
AcDbLine
 10
11.922673
 20
9.942954
 30
0.0
 11
11.947204
 21
10.082315
 31
0.0
  0
LINE
  5
18f
100
AcDbEntity
  8
Layer_1
 62
7
100
AcDbLine
 10
11.947204
 20
10.082315
 30
0.0
 11
11.971735
 21
10.221677
 31
0.0
  0
LINE
  5
190
100
AcDbEntity
  8
Layer_1
 62
7
100
AcDbLine
 10
11.971735
 20
10.221677
 30
0.0
 11
11.854014
 21
10.300597
 31
0.0
  0
LINE
  5
191
100
AcDbEntity
  8
Layer_1
 62
7
100
AcDbLine
 10
11.854014
 20
10.300597
 30
0.0
 11
11.736277
 21
10.379517
 31
0.0
  0
LINE
  5
192
100
AcDbEntity
  8
Layer_1
 62
7
100
AcDbLine
 10
11.736277
 20
10.379517
 30
0.0
 11
11.618544
 21
10.458433
 31
0.0
  0
LINE
  5
193
100
AcDbEntity
  8
Layer_1
 62
7
100
AcDbLine
 10
11.618544
 20
10.458433
 30
0.0
 11
11.500811
 21
10.537348
 31
0.0
  0
LINE
  5
194
100
AcDbEntity
  8
Layer_1
 62
7
100
AcDbLine
 10
11.500811
 20
10.537348
 30
0.0
 11
11.383078
 21
10.616264
 31
0.0
  0
LINE
  5
195
100
AcDbEntity
  8
Layer_1
 62
7
100
AcDbLine
 10
11.383078
 20
10.616264
 30
0.0
 11
11.265344
 21
10.695180
 31
0.0
  0
LINE
  5
196
100
AcDbEntity
  8
Layer_1
 62
7
100
AcDbLine
 10
11.265344
 20
10.695180
 30
0.0
 11
11.147617
 21
10.774099
 31
0.0
  0
LINE
  5
197
100
AcDbEntity
  8
Layer_1
 62
7
100
AcDbLine
 10
11.147617
 20
10.774099
 30
0.0
 11
11.029883
 21
10.853014
 31
0.0
  0
LINE
  5
198
100
AcDbEntity
  8
Layer_1
 62
7
100
AcDbLine
 10
11.029883
 20
10.853014
 30
0.0
 11
10.700585
 21
11.477581
 31
0.0
  0
LINE
  5
199
100
AcDbEntity
  8
Layer_1
 62
7
100
AcDbLine
 10
10.700585
 20
11.477581
 30
0.0
 11
10.417121
 21
11.993286
 31
0.0
  0
LINE
  5
19a
100
AcDbEntity
  8
Layer_1
 62
7
100
AcDbLine
 10
10.417121
 20
11.993286
 30
0.0
 11
10.164278
 21
12.424038
 31
0.0
  0
LINE
  5
19b
100
AcDbEntity
  8
Layer_1
 62
7
100
AcDbLine
 10
10.164278
 20
12.424038
 30
0.0
 11
9.926845
 21
12.793745
 31
0.0
  0
LINE
  5
19c
100
AcDbEntity
  8
Layer_1
 62
7
100
AcDbLine
 10
9.926845
 20
12.793745
 30
0.0
 11
9.689610
 21
13.126316
 31
0.0
  0
LINE
  5
19d
100
AcDbEntity
  8
Layer_1
 62
7
100
AcDbLine
 10
9.689610
 20
13.126316
 30
0.0
 11
9.437361
 21
13.445660
 31
0.0
  0
LINE
  5
19e
100
AcDbEntity
  8
Layer_1
 62
7
100
AcDbLine
 10
9.437361
 20
13.445660
 30
0.0
 11
9.154888
 21
13.775684
 31
0.0
  0
LINE
  5
19f
100
AcDbEntity
  8
Layer_1
 62
7
100
AcDbLine
 10
9.154888
 20
13.775684
 30
0.0
 11
8.826977
 21
14.140299
 31
0.0
  0
LINE
  5
1a0
100
AcDbEntity
  8
Layer_1
 62
7
100
AcDbLine
 10
8.826977
 20
14.140299
 30
0.0
 11
8.522337
 21
14.487040
 31
0.0
  0
LINE
  5
1a1
100
AcDbEntity
  8
Layer_1
 62
7
100
AcDbLine
 10
8.522337
 20
14.487040
 30
0.0
 11
8.236071
 21
14.782135
 31
0.0
  0
LINE
  5
1a2
100
AcDbEntity
  8
Layer_1
 62
7
100
AcDbLine
 10
8.236071
 20
14.782135
 30
0.0
 11
7.975032
 21
15.027252
 31
0.0
  0
LINE
  5
1a3
100
AcDbEntity
  8
Layer_1
 62
7
100
AcDbLine
 10
7.975032
 20
15.027252
 30
0.0
 11
7.746080
 21
15.224059
 31
0.0
  0
LINE
  5
1a4
100
AcDbEntity
  8
Layer_1
 62
7
100
AcDbLine
 10
7.746080
 20
15.224059
 30
0.0
 11
7.556071
 21
15.374227
 31
0.0
  0
LINE
  5
1a5
100
AcDbEntity
  8
Layer_1
 62
7
100
AcDbLine
 10
7.556071
 20
15.374227
 30
0.0
 11
7.411861
 21
15.479424
 31
0.0
  0
LINE
  5
1a6
100
AcDbEntity
  8
Layer_1
 62
7
100
AcDbLine
 10
7.411861
 20
15.479424
 30
0.0
 11
7.320306
 21
15.541318
 31
0.0
  0
LINE
  5
1a7
100
AcDbEntity
  8
Layer_1
 62
7
100
AcDbLine
 10
7.320306
 20
15.541318
 30
0.0
 11
7.288264
 21
15.561578
 31
0.0
  0
LINE
  5
1a8
100
AcDbEntity
  8
Layer_1
 62
7
100
AcDbLine
 10
7.288264
 20
15.561578
 30
0.0
 11
7.210002
 21
15.716576
 31
0.0
  0
LINE
  5
1a9
100
AcDbEntity
  8
Layer_1
 62
7
100
AcDbLine
 10
7.210002
 20
15.716576
 30
0.0
 11
7.131740
 21
15.871573
 31
0.0
  0
LINE
  5
1aa
100
AcDbEntity
  8
Layer_1
 62
7
100
AcDbLine
 10
7.131740
 20
15.871573
 30
0.0
 11
7.053478
 21
16.026571
 31
0.0
  0
LINE
  5
1ab
100
AcDbEntity
  8
Layer_1
 62
7
100
AcDbLine
 10
7.053478
 20
16.026571
 30
0.0
 11
6.975216
 21
16.181568
 31
0.0
  0
LINE
  5
1ac
100
AcDbEntity
  8
Layer_1
 62
7
100
AcDbLine
 10
6.975216
 20
16.181568
 30
0.0
 11
6.896953
 21
16.336566
 31
0.0
  0
LINE
  5
1ad
100
AcDbEntity
  8
Layer_1
 62
7
100
AcDbLine
 10
6.896953
 20
16.336566
 30
0.0
 11
6.818691
 21
16.491563
 31
0.0
  0
LINE
  5
1ae
100
AcDbEntity
  8
Layer_1
 62
7
100
AcDbLine
 10
6.818691
 20
16.491563
 30
0.0
 11
6.740429
 21
16.646561
 31
0.0
  0
LINE
  5
1af
100
AcDbEntity
  8
Layer_1
 62
7
100
AcDbLine
 10
6.740429
 20
16.646561
 30
0.0
 11
6.662167
 21
16.801559
 31
0.0
  0
LINE
  5
1b0
100
AcDbEntity
  8
Layer_1
 62
7
100
AcDbLine
 10
6.662167
 20
16.801559
 30
0.0
 11
5.970179
 21
16.699449
 31
0.0
  0
LINE
  5
1b1
100
AcDbEntity
  8
Layer_1
 62
7
100
AcDbLine
 10
5.970179
 20
16.699449
 30
0.0
 11
5.315778
 21
16.565509
 31
0.0
  0
LINE
  5
1b2
100
AcDbEntity
  8
Layer_1
 62
7
100
AcDbLine
 10
5.315778
 20
16.565509
 30
0.0
 11
4.688481
 21
16.388950
 31
0.0
  0
LINE
  5
1b3
100
AcDbEntity
  8
Layer_1
 62
7
100
AcDbLine
 10
4.688481
 20
16.388950
 30
0.0
 11
4.077804
 21
16.158985
 31
0.0
  0
LINE
  5
1b4
100
AcDbEntity
  8
Layer_1
 62
7
100
AcDbLine
 10
4.077804
 20
16.158985
 30
0.0
 11
3.473263
 21
15.864825
 31
0.0
  0
LINE
  5
1b5
100
AcDbEntity
  8
Layer_1
 62
7
100
AcDbLine
 10
3.473263
 20
15.864825
 30
0.0
 11
2.864373
 21
15.495681
 31
0.0
  0
LINE
  5
1b6
100
AcDbEntity
  8
Layer_1
 62
7
100
AcDbLine
 10
2.864373
 20
15.495681
 30
0.0
 11
2.240650
 21
15.040765
 31
0.0
  0
LINE
  5
1b7
100
AcDbEntity
  8
Layer_1
 62
7
100
AcDbLine
 10
2.240650
 20
15.040765
 30
0.0
 11
1.591610
 21
14.489290
 31
0.0
  0
ENDSEC
  0
SECTION
  2
OBJECTS
  0
DICTIONARY
  5
C
330
0
100
AcDbDictionary
  3
ACAD_GROUP
350
D
  3
ACAD_MLINESTYLE
350
17
  0
DICTIONARY
  5
D
330
C
100
AcDbDictionary
  0
DICTIONARY
  5
1A
330
C
100
AcDbDictionary
  0
DICTIONARY
  5
17
330
C
100
AcDbDictionary
  3
STANDARD
350
18
  0
DICTIONARY
  5
19
330
C
100
AcDbDictionary
  0
ENDSEC
  0
EOF
